<svg width="20" height="20" viewBox="0 0 20 20" fill="none" xmlns="http://www.w3.org/2000/svg">
<g clip-path="url(#clip0_1005_129)">
<path d="M19.502 11.3419C19.4006 11.3184 19.2953 11.3177 19.1936 11.3398C19.0919 11.362 18.9964 11.4064 18.914 11.4699C18.2401 12.0441 17.4699 12.4943 16.639 12.7999C15.8145 13.1116 14.9394 13.2676 14.058 13.2599C13.0705 13.2605 12.0926 13.0666 11.1801 12.6891C10.2676 12.3116 9.43845 11.758 8.74001 11.0599C7.33139 9.6495 6.54074 7.73728 6.54201 5.74392C6.54201 4.87392 6.69501 4.03092 6.95201 3.26392C7.23201 2.44692 7.64201 1.70492 8.17801 1.06692C8.23204 0.999946 8.27228 0.922944 8.29641 0.840348C8.32054 0.757753 8.32808 0.671198 8.31859 0.585675C8.30911 0.500152 8.2828 0.417351 8.24116 0.342047C8.19953 0.266742 8.1434 0.200424 8.07601 0.146916C7.99358 0.0833894 7.89808 0.038955 7.7964 0.0168196C7.69471 -0.00531569 7.58938 -0.00459972 7.48801 0.0189159C5.31601 0.606916 3.42501 1.90992 2.07001 3.64892C0.72446 5.41043 -0.00306233 7.56629 9.68902e-06 9.78292C9.68902e-06 12.5699 1.12501 15.0999 2.96501 16.9399C3.90202 17.8834 5.01712 18.6313 6.24556 19.1403C7.474 19.6493 8.79131 19.9092 10.121 19.9049C12.473 19.9049 14.645 19.0869 16.383 17.7319C18.1743 16.3244 19.4359 14.3515 19.962 12.1349C19.988 12.0526 19.9966 11.9658 19.9872 11.8801C19.9777 11.7943 19.9505 11.7114 19.9072 11.6368C19.8639 11.5622 19.8055 11.4974 19.7357 11.4466C19.666 11.3958 19.5863 11.3602 19.502 11.3419V11.3419Z" fill="#7E9AC3"/>
</g>
<defs>
<clipPath id="clip0_1005_129">
<rect width="20" height="20" fill="white"/>
</clipPath>
</defs>
</svg>
