<svg width="242" height="200" viewBox="0 0 242 200" fill="none" xmlns="http://www.w3.org/2000/svg">
<path d="M31.136 83.879L116.171 30.209L201.207 83.879V162.183H31.136V83.879Z" fill="#E6E7E8"/>
<path d="M201.207 162.577H31.136C31.0315 162.577 30.9313 162.536 30.8574 162.462C30.7835 162.388 30.742 162.288 30.742 162.183V83.8801C30.7407 83.8141 30.7567 83.7489 30.7885 83.691C30.8202 83.6331 30.8666 83.5845 30.923 83.5501L115.96 29.9101C116.023 29.872 116.095 29.8518 116.168 29.8518C116.242 29.8518 116.314 29.872 116.377 29.9101L201.444 83.5871C201.561 83.6571 201.633 83.7821 201.633 83.9171V162.222C201.623 162.325 201.573 162.42 201.493 162.486C201.414 162.552 201.311 162.585 201.208 162.576L201.207 162.577ZM31.507 161.79H200.852V84.1001L116.172 30.6981L31.506 84.0991V161.79H31.507Z" fill="#1F2023"/>
<path d="M136.887 62.8001C139.714 58.1341 140.431 52.4611 140.171 47.0161C139.982 41.0588 138.41 35.2272 135.579 29.9821C134.429 27.7286 132.741 25.7935 130.664 24.3481C128.112 22.7741 126.371 23.8371 123.874 23.4121C121.764 23.0501 119.558 21.5471 117.219 21.1621C111.823 20.2401 106.278 21.3983 101.702 24.4031C93.7 29.8101 90.005 40.1401 81.735 45.1601C73.63 50.0541 63.257 48.5831 54.167 51.2901C50.3309 52.4385 46.7562 54.3255 43.644 56.8451C41.4949 58.4886 39.7359 60.587 38.493 62.9901C36.358 67.4431 36.917 72.7461 38.493 77.4441C40.068 82.2741 42.73 86.8861 46.858 89.8841C50.315 92.3781 54.561 93.5261 58.759 94.2821C64.469 95.3121 70.385 95.6981 76.088 94.4621C80.2959 93.614 84.2183 91.7077 87.485 88.9231C88.887 87.6731 89.659 85.9651 90.966 84.7221C92.77 83.0141 95.582 81.9681 97.693 80.6621C100.993 78.6081 104.301 76.4211 108.066 75.4451C117.628 72.9591 131.121 72.2821 136.886 62.8011L136.887 62.8001Z" fill="white"/>
<path d="M68.47 95.6261C65.1819 95.5981 61.9029 95.2768 58.672 94.6661C55.033 94.0131 50.378 92.9121 46.622 90.2131C42.864 87.5141 39.942 83.1311 38.13 77.6231C36.839 73.6901 35.767 67.8911 38.186 62.9031C39.4392 60.4374 41.2319 58.2858 43.431 56.6081C46.5778 54.0591 50.1931 52.1506 54.073 50.9901C57.7451 50.0212 61.4957 49.3787 65.281 49.0701C71.157 48.4251 76.71 47.8111 81.546 44.8921C85.768 42.3421 88.848 38.2821 91.833 34.3561C94.66 30.6351 97.591 26.7871 101.497 24.1281C106.138 21.0666 111.767 19.8771 117.25 20.7991C118.504 21.0641 119.721 21.4821 120.874 22.0431C121.854 22.5011 122.882 22.8521 123.938 23.0891C124.736 23.2011 125.545 23.2191 126.348 23.1441C127.913 22.919 129.507 23.2506 130.853 24.0811C132.987 25.5469 134.72 27.5241 135.894 29.8321C138.763 35.1242 140.352 41.015 140.534 47.0321C140.841 53.4841 139.746 58.8341 137.194 63.0121C132.468 70.7391 122.796 72.7141 114.242 74.4611C112.083 74.9011 110.052 75.3111 108.153 75.8061C104.758 76.6801 101.686 78.5991 98.701 80.4561L97.913 80.9681C97.126 81.4321 96.338 81.8651 95.511 82.2901C93.975 82.9924 92.5416 83.9 91.25 84.9881C90.6657 85.5858 90.1384 86.2366 89.675 86.9321C89.1265 87.7567 88.4868 88.5169 87.768 89.1981C84.4506 92.058 80.4519 94.0143 76.158 94.8781C73.6302 95.4047 71.0528 95.6555 68.471 95.6261H68.47ZM113.627 21.2561C109.457 21.2341 105.377 22.4561 101.907 24.7651C98.087 27.3381 95.204 31.1381 92.407 34.8131C89.383 38.7941 86.257 42.9171 81.917 45.5291C76.947 48.5351 71.054 49.1801 65.375 49.8091C61.635 50.1091 57.929 50.7411 54.301 51.6981C50.5095 52.8391 46.9776 54.7102 43.904 57.2061C41.7909 58.8106 40.0631 60.867 38.847 63.2251C36.563 67.9931 37.579 73.5721 38.847 77.3881C40.612 82.8081 43.455 87.0421 47.07 89.6461C50.686 92.2511 55.27 93.3441 58.83 93.9901C65.462 95.1781 71.07 95.2401 75.993 94.1701C80.1638 93.3346 84.0489 91.4379 87.273 88.6631C87.9521 88.0165 88.5568 87.296 89.076 86.5151C89.5685 85.7809 90.1304 85.0958 90.754 84.4691C92.0935 83.3321 93.5827 82.3843 95.18 81.6521C96.023 81.2191 96.81 80.8101 97.543 80.3621L98.378 79.8421C101.395 77.9621 104.514 76.0111 108.019 75.1221C109.941 74.6261 111.957 74.2091 114.139 73.7681C122.559 72.0611 132.089 70.1181 136.627 62.6581L136.934 62.8481L136.627 62.6581C139.068 58.6301 140.155 53.3901 139.857 47.0791C139.683 41.1752 138.126 35.3945 135.311 30.2021C134.196 27.9973 132.551 26.1044 130.522 24.6941C129.297 23.951 127.847 23.6717 126.434 23.9071C125.576 23.9801 124.712 23.9571 123.859 23.8371C122.75 23.5947 121.672 23.2277 120.645 22.7431C119.55 22.2222 118.398 21.8338 117.211 21.5861C116.028 21.3757 114.829 21.2653 113.627 21.2561V21.2561Z" fill="#1F2023"/>
<path d="M169.023 55.0901L164.88 70.6681L174.86 72.4461L180.546 51.6351C180.546 51.6351 171.677 44.8531 170.306 44.8051C168.936 44.7581 169.023 55.0891 169.023 55.0891V55.0901Z" fill="white"/>
<path d="M174.86 72.8401H174.789L164.825 71.0851C164.771 71.0761 164.72 71.0558 164.675 71.0256C164.629 70.9955 164.591 70.956 164.562 70.9099C164.533 70.8638 164.514 70.8121 164.507 70.7582C164.499 70.7043 164.503 70.6494 164.518 70.5971L168.629 55.0891C168.629 53.4211 168.629 45.7731 169.795 44.6481C169.861 44.5777 169.942 44.5223 170.032 44.4857C170.122 44.4491 170.218 44.4322 170.315 44.4361C171.725 44.4831 179.27 50.2031 180.775 51.3441C180.837 51.3921 180.883 51.4572 180.908 51.5313C180.934 51.6054 180.937 51.6853 180.917 51.7611L175.222 72.5721C175.197 72.649 175.149 72.7163 175.084 72.7644C175.019 72.8124 174.941 72.8389 174.86 72.8401V72.8401ZM165.408 70.3771L174.592 71.9971L180.105 51.7841C175.845 48.5431 171.071 45.2221 170.315 45.1991C169.755 45.6161 169.409 50.7071 169.44 55.1131C169.444 55.1469 169.444 55.1812 169.44 55.2151L165.408 70.3771Z" fill="#1F2023"/>
<path d="M158.24 44.9001C158.24 44.9001 159.65 48.0471 161.682 48.5591C163.714 49.0701 168.133 46.8901 168.645 47.1741C169.157 47.4571 180.815 56.1751 181.948 56.4341C183.083 56.6941 185.17 53.9481 186.06 50.6831C186.06 50.6831 174.718 42.9561 173.977 42.1381C173.237 41.3201 172.355 36.4261 171.252 34.6321L158.24 44.9001Z" fill="white"/>
<path d="M182.067 56.8521C181.986 56.8598 181.903 56.8598 181.822 56.8521C181.114 56.6791 177.396 54.0421 171.212 49.5341C169.819 48.5111 168.606 47.6381 168.456 47.5441C168.306 47.4491 167.511 47.8271 166.881 48.0471C165.234 48.5901 162.981 49.3371 161.611 48.9761C159.421 48.3931 157.972 45.2221 157.909 45.0891C157.871 45.0108 157.861 44.9217 157.881 44.8369C157.901 44.7522 157.95 44.677 158.019 44.6241L171.008 34.3961C171.052 34.3622 171.103 34.3377 171.157 34.3241C171.212 34.3105 171.268 34.3081 171.323 34.3171C171.433 34.3401 171.529 34.4051 171.591 34.4981C172.274 35.8973 172.802 37.367 173.166 38.8811C173.403 39.9411 173.768 40.9691 174.253 41.9411C174.773 42.5161 181.72 47.3311 186.265 50.4311C186.406 50.5221 186.47 50.6951 186.422 50.8561C185.611 53.7201 183.602 56.8521 182.067 56.8521ZM168.51 46.7571C168.622 46.7524 168.733 46.7765 168.833 46.8271C168.998 46.9141 169.825 47.5201 171.676 48.8651C174.827 51.1391 181.262 55.8601 182.003 56.0571C182.743 56.2541 184.618 54.0821 185.571 50.8481C183.657 49.5501 174.362 43.1921 173.653 42.3981C173.252 41.9581 172.913 40.8241 172.385 39.0301C172.049 37.7341 171.62 36.4641 171.101 35.2301L158.727 45.0101C159.113 45.7501 160.303 47.7871 161.776 48.1571C162.926 48.4571 165.139 47.7241 166.596 47.2451C167.21 46.9997 167.853 46.8356 168.51 46.7571V46.7571Z" fill="#1F2023"/>
<path d="M170.638 37.5671C170.545 38.3988 170.701 39.2394 171.087 39.9821C171.725 41.1231 174.552 42.6421 174.552 42.6421L176.522 38.7081L172.662 35.9221L170.638 37.5671Z" fill="#1F2023"/>
<path d="M174.552 43.035C174.489 43.0353 174.427 43.0191 174.372 42.988C174.064 42.83 171.417 41.375 170.748 40.171C170.321 39.3539 170.148 38.4273 170.252 37.511C170.264 37.416 170.312 37.3291 170.386 37.268L172.41 35.6C172.479 35.5452 172.565 35.5154 172.654 35.5154C172.743 35.5154 172.828 35.5452 172.898 35.6L176.75 38.385C176.904 38.495 176.957 38.701 176.876 38.873L174.906 42.807C174.882 42.8539 174.849 42.8955 174.808 42.9293C174.768 42.9632 174.721 42.9886 174.671 43.004C174.634 43.0223 174.593 43.0328 174.552 43.035V43.035ZM171.016 37.779C170.967 38.4759 171.112 39.1727 171.433 39.793C171.843 40.58 173.473 41.579 174.387 42.107L176.017 38.817L172.677 36.402L171.016 37.779V37.779Z" fill="#1F2023"/>
<path d="M182.988 48.5981C182.988 48.5981 184.02 45.3481 182.2 45.1201C182.184 44.8339 182.094 44.5566 181.939 44.3152C181.784 44.0738 181.57 43.8764 181.316 43.742C181.063 43.6076 180.779 43.5408 180.493 43.548C180.206 43.5552 179.926 43.6362 179.68 43.7831C179.68 43.7831 179.097 41.3671 177.191 41.8551C175.285 42.3431 173.773 46.8981 174.041 48.0471C174.308 49.1961 175.789 48.4961 176.537 47.4171C176.537 47.4171 175.568 49.2121 176.214 49.6841C177.159 50.3761 178.152 49.1491 178.955 48.2521C178.955 48.2521 177.766 50.3521 179.515 50.5421C180.861 50.6911 182.114 47.9761 182.114 47.9761L182.988 48.5981V48.5981Z" fill="white"/>
<path d="M179.585 50.943H179.435C178.717 50.943 178.133 50.363 178.128 49.644C177.475 50.219 176.718 50.581 175.938 50.006C175.769 49.8541 175.646 49.6577 175.584 49.4393C175.521 49.2209 175.521 48.9893 175.584 48.771C175.244 48.984 174.84 49.071 174.442 49.015C174.231 48.973 174.038 48.8665 173.89 48.7101C173.741 48.5537 173.645 48.3552 173.615 48.142C173.324 46.812 174.891 42.044 177.065 41.485C177.335 41.4044 177.619 41.3811 177.898 41.4164C178.178 41.4517 178.447 41.5448 178.688 41.69C179.248 42.074 179.672 42.624 179.901 43.263C180.156 43.1704 180.427 43.1311 180.698 43.1474C180.969 43.1638 181.234 43.2354 181.476 43.358C181.982 43.6864 182.342 44.196 182.484 44.782C182.827 44.881 183.121 45.102 183.311 45.403C184.012 46.497 183.406 48.488 183.311 48.716C183.294 48.7749 183.263 48.8287 183.221 48.8727C183.178 48.9167 183.125 48.9494 183.067 48.968C183.008 48.9879 182.945 48.994 182.884 48.9857C182.822 48.9774 182.763 48.9549 182.712 48.92L182.177 48.55C181.799 49.353 180.791 50.943 179.585 50.943V50.943ZM178.916 47.858C179.001 47.8562 179.085 47.8842 179.152 47.937C179.311 48.057 179.357 48.274 179.262 48.448C179.089 48.755 178.79 49.511 178.979 49.88C178.979 49.935 179.089 50.109 179.522 50.156C180.31 50.242 181.35 48.582 181.72 47.796C181.745 47.7446 181.78 47.6991 181.823 47.6624C181.867 47.6257 181.917 47.5986 181.972 47.583C182.028 47.5662 182.086 47.5624 182.143 47.572C182.201 47.5815 182.255 47.6041 182.302 47.638L182.744 47.945C182.957 47.246 182.932 46.4964 182.674 45.813C182.613 45.7226 182.533 45.6472 182.438 45.5927C182.344 45.5381 182.239 45.5057 182.13 45.498C182.044 45.4857 181.965 45.4461 181.904 45.385C181.842 45.3239 181.803 45.2446 181.79 45.159C181.722 44.7095 181.479 44.3051 181.114 44.034C180.904 43.9502 180.678 43.9153 180.453 43.9318C180.228 43.9482 180.009 44.0156 179.814 44.129C179.762 44.1523 179.706 44.1644 179.649 44.1644C179.592 44.1644 179.536 44.1523 179.484 44.129C179.432 44.1032 179.386 44.0668 179.349 44.0219C179.312 43.9771 179.285 43.925 179.27 43.869C179.121 43.2631 178.771 42.7254 178.278 42.343C178.125 42.2556 177.956 42.2008 177.781 42.1819C177.607 42.163 177.43 42.1803 177.262 42.233C175.584 42.657 174.174 46.953 174.387 47.953C174.442 48.197 174.544 48.22 174.6 48.228C174.925 48.184 175.235 48.067 175.508 47.8859C175.78 47.7047 176.009 47.464 176.175 47.182C176.295 47.012 176.525 46.963 176.703 47.072C176.787 47.1256 176.847 47.2084 176.873 47.3043C176.899 47.4002 176.889 47.5023 176.844 47.591C176.443 48.378 176.222 49.227 176.404 49.361C176.954 49.762 177.608 49.117 178.459 48.173L178.625 47.984C178.662 47.9443 178.708 47.9127 178.758 47.891C178.808 47.8694 178.861 47.8581 178.916 47.858V47.858Z" fill="#1F2023"/>
<path d="M174.568 38.85C174.568 38.85 173.489 36.977 172.355 38.621C171.221 40.265 169.858 43.341 171.748 43.672C173.638 44.002 175.056 40.478 174.568 38.849V38.85Z" fill="white"/>
<path d="M171.992 44.0741C171.89 44.0819 171.787 44.0819 171.685 44.0741C171.438 44.0443 171.203 43.9501 171.004 43.8009C170.805 43.6517 170.649 43.4528 170.551 43.2241C170 41.9101 171.221 39.5731 172.031 38.4091C172.166 38.1606 172.364 37.9516 172.604 37.8026C172.844 37.6536 173.119 37.5696 173.402 37.5591C174.269 37.5991 174.844 38.5581 174.907 38.6601L174.947 38.7471C175.077 39.5323 175.035 40.3363 174.824 41.1037C174.613 41.8711 174.238 42.5836 173.725 43.1921C173.515 43.4536 173.252 43.6675 172.953 43.8195C172.655 43.9716 172.327 44.0584 171.992 44.0741V44.0741ZM173.347 38.3221C173.087 38.3221 172.835 38.5971 172.677 38.8261C171.725 40.2021 170.945 42.0991 171.276 42.8931C171.371 43.1081 171.576 43.2531 171.811 43.2711C172.066 43.2871 172.321 43.2386 172.553 43.1298C172.784 43.0211 172.984 42.8558 173.135 42.6491C173.554 42.1452 173.865 41.5603 174.048 40.9309C174.231 40.3015 174.282 39.6411 174.198 38.9911C174.072 38.7861 173.718 38.3381 173.363 38.3221H173.347Z" fill="#1F2023"/>
<path d="M169.015 56.143C169.015 56.143 167.771 50.203 167.652 49.141C167.456 47.339 167.881 44.522 169.464 44.081C171.047 43.641 174.671 43.224 174.072 44.813C173.528 46.261 170.354 46.536 170.354 46.536C170.354 46.536 172.544 48.739 172.213 50.935" fill="white"/>
<path d="M169.015 56.5371C168.925 56.5375 168.838 56.5073 168.768 56.4515C168.698 56.3956 168.649 56.3175 168.629 56.2301C168.582 55.9861 167.385 50.2501 167.267 49.1491C167.062 47.3071 167.456 44.1991 169.362 43.6411C170.354 43.3661 173.387 42.7991 174.277 43.7671C174.551 44.0721 174.617 44.5121 174.442 44.8841C173.993 46.0961 172.182 46.5761 171.134 46.7641C171.796 47.5991 172.859 49.2441 172.599 50.9271C172.583 51.0316 172.527 51.1256 172.442 51.1884C172.357 51.2512 172.25 51.2777 172.146 51.2621C172.041 51.2464 171.947 51.1899 171.885 51.105C171.822 51.02 171.795 50.9136 171.811 50.8091C172.111 48.8341 170.086 46.7651 170.071 46.7491C170.018 46.6951 169.981 46.6276 169.965 46.554C169.948 46.4804 169.952 46.4036 169.976 46.3321C170.003 46.2622 170.049 46.2014 170.109 46.1568C170.169 46.1122 170.24 46.0856 170.315 46.0801C171.102 46.0101 173.324 45.6081 173.694 44.6091C173.78 44.3961 173.694 44.3331 173.694 44.3021C173.276 43.8381 171.094 43.9791 169.566 44.3961C168.283 44.7501 167.857 47.3161 168.046 49.0311C168.164 50.0611 169.393 55.9471 169.401 56.0011C169.413 56.0519 169.414 56.1045 169.405 56.1557C169.395 56.207 169.376 56.2558 169.347 56.2993C169.318 56.3428 169.281 56.38 169.238 56.4086C169.194 56.4373 169.145 56.4568 169.094 56.4661L169.015 56.5361V56.5371Z" fill="#1F2023"/>
<path d="M192.275 33.6171C192.275 33.6171 179.152 32.3191 173.796 35.4191C172.45 36.2218 171.16 37.1155 169.936 38.0941C167.03 40.3681 164.297 42.9481 162.17 44.3881C157.949 47.2211 153.869 47.7951 151.088 43.2871C148.725 39.4391 150.104 37.6141 153.301 34.1911C154.877 32.4991 158.216 29.7061 161.091 26.6141C162.79 24.8956 164.224 22.9334 165.345 20.7921C167.771 15.6931 167.085 7.88013 167.085 7.88013L192.275 33.6171V33.6171Z" fill="white"/>
<path d="M156.27 46.977C155.846 46.9807 155.423 46.9358 155.01 46.843C154.109 46.6114 153.266 46.1953 152.534 45.6211C151.801 45.0469 151.197 44.327 150.757 43.507C148.213 39.384 149.781 37.394 153.01 33.932C153.687 33.208 154.664 32.295 155.798 31.248C157.374 29.785 159.146 28.101 160.808 26.354C162.481 24.6677 163.891 22.7395 164.99 20.634C167.353 15.677 166.7 7.96599 166.692 7.88799C166.686 7.80695 166.704 7.72587 166.745 7.65551C166.785 7.58514 166.847 7.52881 166.92 7.49399C166.994 7.45875 167.078 7.44819 167.159 7.46384C167.24 7.47949 167.313 7.52053 167.369 7.58099L192.574 33.341C192.629 33.3987 192.665 33.4718 192.678 33.5506C192.69 33.6294 192.678 33.7101 192.644 33.782C192.609 33.8552 192.553 33.9161 192.483 33.9568C192.413 33.9975 192.332 34.0161 192.251 34.01C192.117 34.01 179.191 32.76 174.009 35.773C172.679 36.5656 171.406 37.4486 170.197 38.416C169.007 39.353 167.834 40.328 166.739 41.265C165.356 42.4878 163.91 43.6381 162.407 44.711C160.123 46.221 158.075 46.977 156.271 46.977H156.27ZM167.543 8.87999C167.638 11.24 167.63 16.89 165.708 20.974C164.568 23.1497 163.111 25.1436 161.384 26.89C159.706 28.692 157.918 30.352 156.334 31.824C155.216 32.862 154.24 33.767 153.586 34.468C150.436 37.812 149.176 39.448 151.428 43.123C151.815 43.8518 152.347 44.4932 152.992 45.0076C153.637 45.522 154.38 45.8982 155.177 46.113C157.052 46.522 159.328 45.837 161.951 44.083C163.431 43.0321 164.853 41.9024 166.212 40.699C167.338 39.755 168.496 38.771 169.694 37.835C170.943 36.8412 172.259 35.9344 173.632 35.121C178.192 32.469 188.022 32.925 191.283 33.169L167.542 8.87999H167.543Z" fill="#1F2023"/>
<path d="M170.638 37.5671C167.731 39.8411 164.218 42.8541 162.17 44.3811C157.492 47.8741 154.53 48.2441 151.474 43.9241C148.324 39.4861 150.104 37.6301 153.301 34.1991C154.877 32.5071 158.216 29.7141 161.091 26.6221C161.091 26.6221 161.272 29.8401 164.478 33.7661C166.053 35.6813 168.22 37.0182 170.638 37.5661V37.5671Z" fill="#1F2023"/>
<path d="M156.24 47.4731C155.997 47.4749 155.755 47.4565 155.515 47.4181C153.939 47.1741 152.553 46.1351 151.151 44.1521C147.835 39.4711 149.773 37.4021 152.971 33.9711C153.687 33.1841 154.664 32.2951 155.798 31.2481C157.374 29.7851 159.146 28.1011 160.808 26.3541C160.859 26.2968 160.926 26.2563 161.001 26.2381C161.075 26.2199 161.153 26.2248 161.225 26.2521C161.373 26.3051 161.475 26.4421 161.485 26.5981C161.485 26.5981 161.714 29.7461 164.785 33.5141C166.304 35.3532 168.385 36.6417 170.709 37.1811C170.783 37.1958 170.852 37.2307 170.908 37.2821C170.963 37.3335 171.003 37.3992 171.024 37.4721C171.039 37.5469 171.034 37.6244 171.009 37.6965C170.984 37.7687 170.94 37.8328 170.882 37.8821C169.542 38.9281 168.086 40.1241 166.668 41.2801C165.045 42.6101 163.518 43.8701 162.407 44.6951C159.894 46.5911 157.925 47.4731 156.239 47.4731H156.24ZM160.824 27.4801C159.319 29.0531 157.744 30.5171 156.334 31.8231C155.215 32.8611 154.239 33.7661 153.585 34.4671C150.435 37.8571 148.859 39.5341 151.797 43.6961C153.065 45.4901 154.286 46.4261 155.633 46.6391C157.263 46.8901 159.201 46.1041 161.934 44.0661C163.029 43.2791 164.557 41.9961 166.172 40.6751C167.369 39.6911 168.598 38.6841 169.763 37.7551C167.573 37.0811 165.628 35.7789 164.171 34.0101C162.556 32.1277 161.409 29.8901 160.824 27.4801V27.4801Z" fill="#1F2023"/>
<path d="M195.914 32.5069C192.976 35.1429 186.462 32.9479 180.121 27.5899C176.897 24.8699 174.067 21.7162 171.709 18.2189C166.983 11.2789 165.51 4.55891 168.472 1.90791C172.126 -1.37309 181.247 2.81291 188.832 11.2629C196.418 19.7129 199.584 29.2179 195.914 32.5069V32.5069Z" fill="#5D9CFA"/>
<path d="M171.772 0.798034C176.238 0.798034 182.98 4.78003 188.809 11.271C196.402 19.721 199.584 29.226 195.898 32.515C194.969 33.2908 193.783 33.6898 192.574 33.633C189.242 33.633 184.65 31.422 180.105 27.598C178.48 26.2274 176.954 24.7444 175.537 23.16C174.15 21.6024 172.871 19.9516 171.709 18.219C166.983 11.279 165.51 4.55903 168.472 1.90803C169.396 1.1415 170.572 0.745882 171.772 0.798034V0.798034ZM171.772 0.0120339C170.367 -0.0486087 168.992 0.42317 167.92 1.33303C164.715 4.20503 165.967 11.169 171.032 18.643C173.441 22.197 176.318 25.4103 179.585 28.196C184.311 32.13 189.037 34.411 192.558 34.411C193.977 34.4708 195.366 33.9869 196.441 33.058C198.466 31.248 198.804 27.865 197.331 23.538C195.558 18.7798 192.863 14.4186 189.4 10.705C183.524 4.22003 176.624 0.0120339 171.772 0.0120339V0.0120339Z" fill="#1F2023"/>
<path d="M185.359 21.0431L180.121 27.5901C176.897 24.8701 174.067 21.7164 171.709 18.2191L179.286 13.5691L185.359 21.0431Z" fill="white"/>
<path d="M185.365 21.0563C186.323 20.2697 185.731 17.9655 184.042 15.9097C182.353 13.854 180.208 12.8252 179.25 13.6118C178.293 14.3984 178.885 16.7026 180.574 18.7584C182.263 20.8141 184.408 21.8429 185.365 21.0563Z" fill="#1F2023"/>
<path d="M184.556 21.689C183.319 21.689 181.649 20.689 180.255 18.989C179.461 18.0568 178.871 16.9688 178.522 15.795C178.231 14.662 178.396 13.773 178.987 13.293C179.577 12.813 180.476 12.821 181.531 13.293C182.614 13.8715 183.562 14.6736 184.311 15.646C186.171 17.904 186.73 20.406 185.587 21.35C185.291 21.575 184.927 21.694 184.556 21.689V21.689ZM180.058 13.726C179.852 13.7148 179.649 13.776 179.483 13.899C179.153 14.174 179.081 14.796 179.286 15.599C179.601 16.6644 180.137 17.6511 180.861 18.494C182.516 20.508 184.421 21.295 185.099 20.737C185.776 20.177 185.375 18.156 183.721 16.141C183.024 15.2671 182.152 14.549 181.161 14.033C180.819 13.8547 180.443 13.7501 180.058 13.726V13.726ZM178.916 48.645C178.846 48.6456 178.778 48.6265 178.719 48.59C178.674 48.5648 178.635 48.5307 178.603 48.4899C178.571 48.4491 178.548 48.4024 178.535 48.3525C178.522 48.3027 178.519 48.2506 178.526 48.1995C178.533 48.1484 178.55 48.0993 178.577 48.055C179.066 47.2544 179.672 46.5306 180.373 45.907C180.411 45.8661 180.457 45.8337 180.509 45.812C180.56 45.7903 180.615 45.7797 180.671 45.781C180.727 45.7824 180.782 45.7955 180.832 45.8197C180.883 45.8438 180.927 45.8783 180.963 45.921C180.999 45.9637 181.026 46.0135 181.041 46.0672C181.056 46.1209 181.06 46.1772 181.052 46.2324C181.044 46.2877 181.024 46.3405 180.994 46.3875C180.964 46.4345 180.924 46.4746 180.877 46.505C180.265 47.0803 179.735 47.7368 179.302 48.456C179.262 48.521 179.205 48.5734 179.137 48.607C179.068 48.6407 178.992 48.6542 178.916 48.646V48.645ZM176.498 47.811H176.435C176.333 47.7901 176.243 47.7295 176.186 47.6425C176.128 47.5555 176.107 47.4493 176.128 47.347C176.413 46.2239 177.078 45.2341 178.01 44.546C178.094 44.4861 178.198 44.4613 178.299 44.477C178.401 44.4926 178.493 44.5475 178.554 44.6298C178.616 44.7121 178.643 44.8154 178.63 44.9175C178.617 45.0196 178.564 45.1124 178.483 45.176C177.712 45.75 177.156 46.5674 176.907 47.496C176.887 47.5884 176.834 47.6706 176.759 47.7282C176.684 47.7858 176.591 47.8151 176.497 47.811H176.498ZM182.074 48.37C182.002 48.3692 181.932 48.3487 181.871 48.3108C181.81 48.2728 181.76 48.2188 181.728 48.1546C181.695 48.0905 181.681 48.0187 181.687 47.947C181.692 47.8753 181.717 47.8065 181.759 47.748L182.295 46.961C182.358 46.8786 182.45 46.823 182.552 46.8056C182.654 46.7881 182.759 46.8101 182.846 46.867C182.93 46.9284 182.987 47.0201 183.005 47.1228C183.023 47.2255 183 47.331 182.941 47.417L182.397 48.204C182.361 48.2566 182.313 48.2994 182.257 48.3284C182.2 48.3574 182.137 48.3717 182.074 48.37V48.37Z" fill="#1F2023"/>
<path d="M157.216 46.678C157.131 46.6783 157.048 46.6506 156.98 46.599C153.498 43.956 151.34 40.745 150.915 37.567V37.48C150.89 37.3967 150.894 37.3075 150.925 37.2265C150.956 37.1454 151.014 37.077 151.088 37.032C151.132 37.0033 151.181 36.9837 151.232 36.9745C151.283 36.9652 151.336 36.9665 151.387 36.9781C151.438 36.9898 151.486 37.0117 151.528 37.0424C151.57 37.0732 151.605 37.1121 151.632 37.157C151.678 37.253 151.705 37.357 151.71 37.464C152.112 40.439 154.152 43.46 157.476 45.97C157.543 46.0198 157.592 46.0896 157.617 46.1692C157.641 46.2489 157.64 46.3343 157.613 46.4131C157.586 46.4919 157.534 46.5601 157.466 46.6077C157.397 46.6553 157.315 46.6799 157.232 46.678H157.216V46.678ZM155.27 34.12C155.216 34.1193 155.163 34.107 155.114 34.0841C155.065 34.0612 155.022 34.028 154.987 33.987C154.95 33.9511 154.921 33.9082 154.901 33.8609C154.881 33.8136 154.871 33.7628 154.871 33.7115C154.871 33.6601 154.881 33.6093 154.901 33.562C154.921 33.5147 154.95 33.4718 154.987 33.436L159.225 29.502C159.26 29.4645 159.303 29.4346 159.35 29.4142C159.398 29.3938 159.448 29.3833 159.5 29.3833C159.551 29.3833 159.602 29.3938 159.65 29.4142C159.697 29.4346 159.74 29.4645 159.775 29.502C159.812 29.5378 159.841 29.5806 159.86 29.6278C159.88 29.675 159.891 29.7257 159.891 29.777C159.891 29.8282 159.88 29.8789 159.86 29.9261C159.841 29.9733 159.812 30.0161 159.775 30.052L155.538 33.987C155.505 34.0261 155.464 34.058 155.418 34.0809C155.372 34.1038 155.322 34.1171 155.271 34.12H155.27ZM155.853 35.065C155.743 35.062 155.639 35.0168 155.562 34.939C155.489 34.8641 155.449 34.7638 155.449 34.6595C155.449 34.5551 155.489 34.4548 155.562 34.38L159.8 30.446C159.855 30.3927 159.925 30.3568 160.001 30.3427C160.077 30.3286 160.155 30.337 160.226 30.3667C160.296 30.3965 160.357 30.4464 160.4 30.5102C160.443 30.5741 160.466 30.649 160.467 30.726C160.467 30.7778 160.457 30.8292 160.437 30.8771C160.417 30.9249 160.388 30.9684 160.351 31.005L156.121 34.939C156.05 35.0123 155.955 35.0571 155.853 35.065V35.065ZM156.523 36.15C156.469 36.1514 156.416 36.1408 156.367 36.119C156.318 36.0972 156.274 36.0647 156.239 36.024C156.202 35.9881 156.173 35.9453 156.153 35.8981C156.134 35.8509 156.123 35.8002 156.123 35.749C156.123 35.6977 156.134 35.647 156.153 35.5998C156.173 35.5526 156.202 35.5098 156.239 35.474L160.477 31.54C160.512 31.5023 160.555 31.4723 160.602 31.4518C160.65 31.4313 160.701 31.4208 160.752 31.4208C160.804 31.4208 160.855 31.4313 160.903 31.4518C160.95 31.4723 160.993 31.5023 161.028 31.54C161.065 31.5758 161.094 31.6186 161.113 31.6658C161.133 31.713 161.144 31.7637 161.144 31.815C161.144 31.8662 161.133 31.9169 161.113 31.9641C161.094 32.0113 161.065 32.0541 161.028 32.09L156.791 36.024C156.757 36.0623 156.716 36.0933 156.67 36.1149C156.624 36.1366 156.574 36.1485 156.523 36.15V36.15Z" fill="white"/>
<path d="M86.422 96.838L84.445 140.444C84.445 140.444 111.422 140.766 126.939 134.291C128.211 130.134 129.747 126.063 131.539 122.103C133.815 117.508 143.589 110.733 140.518 93.14C140.518 93.14 163.548 107.696 170.039 101.008C176.529 94.32 179.775 63.083 179.775 63.083L166.29 58.756L160.162 78.017C160.162 78.017 121.299 59.236 112.24 56.86C108.877 55.98 98.424 61.534 86.444 69.221" fill="#5D9CFA"/>
<path d="M111.406 69.936C111.406 69.936 117.652 89.324 118.723 97.53C119.795 105.737 119.953 119.302 119.953 119.302C119.953 119.302 129.837 89.056 128.616 70.377L111.406 69.937V69.936Z" fill="#1F2023"/>
<path d="M119.952 119.656H119.905C119.823 119.645 119.747 119.605 119.692 119.542C119.637 119.48 119.606 119.4 119.605 119.317C119.605 119.184 119.432 105.674 118.377 97.5851C117.321 89.4971 111.138 70.2431 111.075 70.0471C111.059 69.9942 111.055 69.9382 111.065 69.8837C111.074 69.8292 111.096 69.7776 111.129 69.7332C111.162 69.6888 111.205 69.6527 111.255 69.6278C111.304 69.603 111.359 69.59 111.414 69.5901L128.616 70.0301C128.797 70.0301 128.946 70.1731 128.955 70.3531C130.175 88.8831 120.385 119.136 120.291 119.412C120.269 119.484 120.223 119.547 120.162 119.591C120.101 119.635 120.027 119.658 119.952 119.656V119.656ZM111.886 70.2981C112.84 73.3041 118.101 90.0481 119.07 97.4831C119.858 103.668 120.165 112.991 120.26 117.153C122.41 110.073 129.2 86.3331 128.285 70.7311L111.886 70.2981ZM79.94 163.592H154.38L126.962 134.291L84.468 140.444C84.468 140.444 79.38 151.947 79.86 160.02C79.892 160.972 79.916 162.191 79.94 163.592V163.592Z" fill="#1F2023"/>
<path d="M154.38 163.985H79.94C79.8887 163.986 79.8377 163.977 79.7899 163.958C79.7422 163.939 79.6986 163.911 79.6619 163.875C79.6251 163.839 79.5959 163.797 79.5758 163.749C79.5557 163.702 79.5453 163.651 79.545 163.6C79.545 162.278 79.498 161.011 79.443 160.043C78.963 151.963 83.87 140.758 84.083 140.278C84.111 140.219 84.1528 140.167 84.2048 140.128C84.2568 140.088 84.3176 140.061 84.382 140.05L126.915 133.897C126.979 133.889 127.043 133.897 127.103 133.919C127.164 133.941 127.218 133.976 127.262 134.023L154.68 163.324C154.732 163.38 154.767 163.451 154.78 163.527C154.793 163.602 154.783 163.68 154.752 163.751C154.721 163.821 154.67 163.881 154.605 163.922C154.54 163.964 154.465 163.986 154.388 163.985H154.38ZM80.34 163.198H153.467L126.813 134.708L84.736 140.798C84.066 142.371 79.806 152.687 80.246 159.996C80.286 160.886 80.341 162.01 80.341 163.198H80.34Z" fill="#1F2023"/>
<path d="M126.474 59.5111L128.608 70.3771C128.608 70.3771 128.664 76.6721 121.685 76.0661C119.624 75.8731 117.631 75.2226 115.853 74.1622C114.075 73.1017 112.556 71.658 111.406 69.9361L108.578 50.9581C108.821 47.5023 108.54 44.0296 107.743 40.6581C115.77 38.9981 120.953 31.7361 120.953 31.7361C120.953 31.7361 124.505 35.3561 125.954 36.4571C127.12 37.2553 128.178 38.1997 129.104 39.2671C130.624 41.1471 131.074 43.7751 131.468 46.0961C131.963 48.8511 132.208 51.6451 132.2 54.4441C132.074 59.7551 126.474 59.5111 126.474 59.5111V59.5111Z" fill="white"/>
<path d="M122.59 76.4669H121.653C119.534 76.2766 117.486 75.6121 115.659 74.5225C113.832 73.433 112.273 71.9464 111.099 70.1729C111.076 70.131 111.061 70.0858 111.052 70.0389C111.052 70.0389 108.232 51.1549 108.224 51.0609C108.192 50.7444 108.192 50.4255 108.224 50.1089C108.407 46.9741 108.125 43.8295 107.389 40.7769C107.377 40.7315 107.375 40.684 107.383 40.6377C107.391 40.5914 107.409 40.5474 107.436 40.5089C107.462 40.469 107.496 40.4345 107.535 40.4076C107.574 40.3806 107.618 40.3617 107.665 40.3519C115.455 38.7779 120.598 31.6419 120.645 31.5709C120.676 31.5282 120.716 31.4927 120.763 31.4668C120.809 31.4409 120.86 31.4253 120.913 31.4209C121.02 31.4109 121.125 31.4519 121.197 31.5309C121.236 31.5309 124.749 35.1429 126.167 36.2049C127.333 37.0232 128.392 37.9854 129.317 39.0689C130.893 41.0519 131.373 43.7899 131.751 46.0639C132.252 48.8399 132.501 51.6549 132.491 54.4749C132.512 55.1943 132.382 55.9101 132.111 56.5768C131.84 57.2434 131.433 57.8463 130.916 58.3469C129.776 59.3166 128.34 59.8711 126.844 59.9199L128.9 70.3609C128.89 72.0955 128.2 73.7569 126.978 74.9879C125.756 76.0197 124.188 76.5487 122.591 76.4679L122.59 76.4669ZM111.753 69.8109C112.882 71.4625 114.359 72.8466 116.08 73.8659C117.801 74.8852 119.725 75.515 121.716 75.7109C123.796 75.8849 125.418 75.4519 126.545 74.4129C127.601 73.3304 128.209 71.8887 128.246 70.3769L126.119 59.5819C126.11 59.528 126.113 59.4728 126.127 59.42C126.14 59.3671 126.165 59.3177 126.199 59.2749C126.233 59.2319 126.278 59.198 126.328 59.176C126.379 59.1541 126.434 59.1448 126.489 59.1489C127.944 59.1773 129.362 58.6895 130.491 57.7719C130.927 57.3325 131.269 56.8084 131.495 56.232C131.721 55.6555 131.827 55.0388 131.806 54.4199C131.813 51.6418 131.568 48.8687 131.074 46.1349C130.688 43.8769 130.286 41.3039 128.79 39.4789C127.892 38.4398 126.868 37.5173 125.741 36.7329C124.513 35.8119 121.874 33.1839 121.015 32.2869C119.889 33.7429 115.171 39.3679 108.2 40.9419C108.904 43.9439 109.17 47.0319 108.988 50.1089C108.967 50.3705 108.967 50.6333 108.988 50.8949C108.988 50.8949 108.956 51.0919 111.753 69.8109V69.8109Z" fill="#1F2023"/>
<path d="M127.427 64.8611C127.427 64.8611 123.047 65.8921 119.645 63.4921C116.242 61.0921 116.1 58.0481 116.1 58.0481C116.1 58.0481 121.488 60.3381 126.474 59.5111L127.427 64.8611Z" fill="#1F2023"/>
<path d="M125.135 65.436C123.114 65.4796 121.128 64.9001 119.448 63.776C115.943 61.305 115.785 58.236 115.785 58.063C115.78 58.0042 115.792 57.9452 115.818 57.8924C115.845 57.8397 115.885 57.7953 115.935 57.764C115.982 57.7289 116.037 57.7069 116.095 57.7C116.153 57.6932 116.211 57.7018 116.265 57.725C116.321 57.725 121.63 59.967 126.45 59.165C126.54 59.1513 126.631 59.1733 126.705 59.2262C126.778 59.2791 126.828 59.3587 126.844 59.448L127.805 64.7979C127.822 64.8867 127.803 64.9784 127.753 65.0535C127.703 65.1286 127.625 65.1811 127.537 65.2C126.748 65.368 125.942 65.4472 125.135 65.436V65.436ZM116.573 58.591C117.064 60.4853 118.24 62.1305 119.873 63.209C122.591 65.129 126.009 64.783 127.057 64.586L126.222 59.904C122.165 60.464 118.038 59.141 116.573 58.591Z" fill="#1F2023"/>
<path d="M120.661 40.981C120.661 40.981 125.158 45.545 124.497 46.607C123.835 47.669 121.393 47.52 121.393 47.52" fill="white"/>
<path d="M121.772 47.8741H121.37C121.324 47.8711 121.28 47.8591 121.239 47.8388C121.198 47.8186 121.162 47.7905 121.132 47.7561C121.102 47.7217 121.079 47.6818 121.064 47.6385C121.05 47.5953 121.044 47.5496 121.047 47.5041C121.053 47.4116 121.095 47.3252 121.165 47.2635C121.234 47.2018 121.324 47.1697 121.417 47.1741C122.039 47.1741 123.78 47.1741 124.205 46.4341C124.473 45.9941 122.709 43.5621 120.417 41.2341C120.352 41.1683 120.316 41.0795 120.317 40.9871C120.317 40.8948 120.355 40.8065 120.421 40.7416C120.486 40.6768 120.575 40.6407 120.667 40.6414C120.76 40.642 120.848 40.6793 120.913 40.7451C122.323 42.1771 125.521 45.6321 124.796 46.8041C124.198 47.7561 122.551 47.8741 121.772 47.8741Z" fill="#1F2023"/>
<path d="M126.883 43.4636C127.421 43.3393 127.741 42.7373 127.598 42.119C127.455 41.5007 126.903 41.1003 126.365 41.2246C125.827 41.3489 125.507 41.9509 125.65 42.5692C125.793 43.1875 126.345 43.5879 126.883 43.4636Z" fill="#1F2023"/>
<path d="M116.848 44.4826C117.386 44.3583 117.706 43.7563 117.563 43.138C117.42 42.5197 116.868 42.1193 116.33 42.2436C115.792 42.368 115.472 42.97 115.615 43.5883C115.758 44.2065 116.31 44.607 116.848 44.4826Z" fill="#1F2023"/>
<path d="M111.154 44.6951C110.059 42.9251 107.499 42.6811 105.711 43.3971C105.118 43.6088 104.603 43.9933 104.231 44.501C103.859 45.0087 103.647 45.6162 103.624 46.2451C103.61 47.0181 103.749 47.7851 104.034 48.5031C104.51 49.8501 105.224 51.1001 106.144 52.1931C106.573 52.7656 107.139 53.2207 107.791 53.5161C108.63 53.8121 109.565 53.5691 110.154 52.9021" fill="white"/>
<path d="M108.531 54.02C108.234 54.019 107.941 53.963 107.665 53.854C106.959 53.5339 106.342 53.0449 105.869 52.43C104.924 51.3029 104.188 50.016 103.695 48.63C103.394 47.8634 103.247 47.0453 103.262 46.222C103.292 45.5269 103.529 44.8566 103.941 44.2961C104.353 43.7356 104.923 43.3102 105.577 43.074C107.547 42.288 110.303 42.602 111.461 44.514C111.501 44.5949 111.51 44.6879 111.485 44.7747C111.46 44.8616 111.404 44.936 111.327 44.9833C111.25 45.0307 111.158 45.0476 111.069 45.0307C110.98 45.0138 110.901 44.9643 110.847 44.892C109.862 43.318 107.539 43.059 105.845 43.735C105.317 43.9219 104.856 44.2621 104.523 44.7121C104.189 45.162 103.997 45.7013 103.971 46.261C103.96 46.9873 104.091 47.7087 104.356 48.385C104.819 49.6914 105.512 50.904 106.404 51.965C106.797 52.488 107.314 52.905 107.909 53.177C108.621 53.427 109.414 53.218 109.909 52.65C109.94 52.608 109.979 52.5731 110.025 52.5478C110.07 52.5224 110.121 52.5071 110.173 52.5029C110.225 52.4988 110.277 52.5058 110.326 52.5236C110.375 52.5414 110.419 52.5695 110.456 52.6061C110.493 52.6426 110.522 52.6867 110.541 52.7354C110.559 52.784 110.567 52.8361 110.564 52.8881C110.561 52.9401 110.546 52.9907 110.521 53.0366C110.497 53.0825 110.462 53.1225 110.421 53.154C109.932 53.682 109.251 53.994 108.531 54.019V54.02Z" fill="#1F2023"/>
<path d="M125.072 48.936L119.802 49.448C119.802 49.448 120.897 57.583 123.268 57.363C125.638 57.143 125.647 51.265 125.072 48.936Z" fill="white"/>
<path d="M123.166 57.717C120.685 57.717 119.637 50.887 119.456 49.495C119.447 49.4492 119.449 49.402 119.461 49.3569C119.473 49.3119 119.495 49.2702 119.526 49.235C119.553 49.1964 119.588 49.1643 119.629 49.1411C119.67 49.1179 119.716 49.1042 119.763 49.101L125.04 48.59C125.123 48.582 125.205 48.6038 125.273 48.6515C125.341 48.6992 125.39 48.7696 125.41 48.85C125.86 50.66 126.01 54.995 124.702 56.828C124.392 57.318 123.876 57.642 123.3 57.709L123.166 57.717ZM120.196 49.762C120.637 52.737 121.772 57.017 123.166 57.017H123.236C123.42 56.9911 123.596 56.9247 123.752 56.8227C123.907 56.7207 124.038 56.5856 124.135 56.427C125.166 54.971 125.214 51.328 124.804 49.345L120.196 49.762V49.762ZM138.257 112.024C138.194 112.024 138.132 112.007 138.077 111.974C138.023 111.942 137.978 111.896 137.947 111.841C137.917 111.785 137.902 111.723 137.903 111.66C137.905 111.596 137.923 111.535 137.957 111.481C138.013 111.378 143.802 101.653 138.265 81.401C138.243 81.3092 138.257 81.2124 138.303 81.1304C138.35 81.0485 138.427 80.9875 138.517 80.96C138.562 80.947 138.61 80.9433 138.657 80.949C138.704 80.9547 138.749 80.9697 138.791 80.9932C138.832 81.0166 138.868 81.0481 138.896 81.0857C138.925 81.1233 138.946 81.1662 138.958 81.212C144.59 101.795 138.816 111.457 138.564 111.898C138.527 111.943 138.48 111.978 138.427 112C138.373 112.022 138.315 112.03 138.257 112.024V112.024Z" fill="#1F2023"/>
<path d="M31.136 83.8789L116.171 145.164L201.207 83.8789V184.419H31.136V83.8789Z" fill="white"/>
<path d="M201.207 184.812H31.136C31.0317 184.812 30.9316 184.771 30.8577 184.697C30.7839 184.623 30.7423 184.523 30.742 184.419V83.8791C30.7409 83.8071 30.7603 83.7363 30.798 83.675C30.8358 83.6137 30.8902 83.5645 30.955 83.5331C31.0164 83.4945 31.0875 83.4741 31.16 83.4741C31.2325 83.4741 31.3035 83.4945 31.365 83.5331L116.171 144.645L200.971 83.5331C201.032 83.4947 201.103 83.4744 201.175 83.4744C201.248 83.4744 201.319 83.4947 201.38 83.5331C201.514 83.5961 201.6 83.7311 201.6 83.8791V184.419C201.598 184.523 201.556 184.621 201.483 184.695C201.409 184.768 201.311 184.81 201.207 184.812V184.812ZM31.507 184.026H200.852V84.6501L116.4 145.48C116.333 145.529 116.251 145.556 116.167 145.556C116.084 145.556 116.002 145.529 115.935 145.48L31.506 84.6501V184.026H31.507Z" fill="#1F2023"/>
<path d="M31.136 184.812C31.0652 184.812 30.9956 184.793 30.9346 184.758C30.8735 184.722 30.8232 184.67 30.789 184.608C30.7401 184.517 30.7284 184.41 30.7563 184.31C30.7843 184.211 30.8497 184.126 30.939 184.073L108.744 139.61C108.835 139.559 108.942 139.546 109.042 139.574C109.142 139.602 109.228 139.669 109.279 139.759C109.306 139.803 109.323 139.852 109.331 139.903C109.338 139.954 109.335 140.007 109.322 140.056C109.309 140.106 109.286 140.153 109.254 140.194C109.222 140.235 109.183 140.269 109.138 140.294L31.325 184.757C31.2675 184.791 31.2026 184.81 31.136 184.812V184.812ZM201.207 184.812C201.138 184.81 201.07 184.791 201.01 184.757L123.205 140.294C123.114 140.243 123.047 140.158 123.019 140.058C122.991 139.957 123.004 139.85 123.055 139.759C123.108 139.67 123.193 139.604 123.293 139.576C123.393 139.548 123.5 139.56 123.591 139.609L201.396 184.073C201.487 184.124 201.554 184.209 201.582 184.309C201.61 184.41 201.597 184.517 201.546 184.608C201.513 184.67 201.464 184.721 201.404 184.757C201.344 184.793 201.276 184.812 201.206 184.812H201.207Z" fill="#1F2023"/>
<path d="M71.677 138.303C71.677 138.303 75.119 147.257 75.93 147.745C76.741 148.233 86.327 152.151 85.642 153.985C84.957 155.818 80.64 153.583 80.64 153.583C80.64 153.583 86.855 160.767 85.216 162.034C83.578 163.301 78.065 165.874 75.851 164.827C73.638 163.781 62.603 150.121 60.264 144.189" fill="white"/>
<path d="M77.19 165.488C76.6767 165.504 76.1661 165.407 75.694 165.205C73.331 164.08 62.224 150.255 59.901 144.355C59.8823 144.306 59.8734 144.255 59.8748 144.203C59.8762 144.151 59.8878 144.099 59.9089 144.052C59.9301 144.004 59.9604 143.961 59.9982 143.925C60.0359 143.89 60.0804 143.862 60.129 143.843C60.1776 143.824 60.2294 143.815 60.2814 143.817C60.3334 143.818 60.3847 143.83 60.4322 143.851C60.4797 143.872 60.5226 143.902 60.5585 143.94C60.5943 143.978 60.6223 144.022 60.641 144.071C63.005 150.121 74.111 163.584 76.025 164.528C77.939 165.472 83.318 163.08 84.988 161.782C85.0239 161.749 85.0528 161.708 85.0731 161.664C85.0933 161.619 85.1045 161.571 85.106 161.522C85.256 159.949 81.719 155.488 80.38 153.898C80.3194 153.829 80.285 153.741 80.2827 153.649C80.2805 153.557 80.3105 153.467 80.3676 153.395C80.4246 153.323 80.5051 153.273 80.5951 153.254C80.6851 153.236 80.7788 153.249 80.86 153.292C81.648 153.702 83.901 154.677 84.91 154.292C85.0022 154.261 85.0861 154.209 85.1556 154.141C85.225 154.073 85.2781 153.99 85.311 153.898C85.5 153.387 84.256 152.104 77.238 148.855C76.387 148.461 75.938 148.249 75.757 148.131C74.906 147.588 72.165 140.601 71.346 138.477C71.3245 138.428 71.3131 138.376 71.3124 138.323C71.3118 138.27 71.322 138.217 71.3423 138.168C71.3626 138.119 71.3926 138.074 71.4306 138.037C71.4686 138 71.5137 137.971 71.5633 137.952C71.6128 137.932 71.6657 137.923 71.7188 137.925C71.7719 137.927 71.8241 137.94 71.8722 137.962C71.9203 137.985 71.9634 138.017 71.9987 138.057C72.0341 138.096 72.0611 138.143 72.078 138.193C73.717 142.45 75.702 147.084 76.19 147.478C76.324 147.564 76.899 147.832 77.568 148.138C83.224 150.751 86.611 152.678 86.051 154.174C85.905 154.571 85.591 154.884 85.193 155.031C84.1312 155.247 83.028 155.121 82.043 154.669C83.563 156.566 86.075 159.972 85.917 161.593C85.9042 161.746 85.8607 161.894 85.7891 162.029C85.7174 162.164 85.619 162.284 85.5 162.38C84.2 163.364 80.01 165.488 77.19 165.488V165.488Z" fill="#1F2023"/>
<path d="M86.445 69.252C66.187 82.25 41.55 101.378 39.47 105.847C36.147 112.928 61.005 148.54 61.005 148.54L74.466 140.01L62.163 113.314L86.423 96.83" fill="#5D9CFA"/>
<path d="M70.889 107.806C70.8305 107.808 70.7725 107.795 70.7201 107.769C70.6678 107.743 70.6227 107.704 70.589 107.656C70.5361 107.577 70.5156 107.481 70.5318 107.387C70.548 107.293 70.5997 107.21 70.676 107.153L97.913 88.104C97.9515 88.0756 97.9954 88.0553 98.0419 88.0442C98.0885 88.0332 98.1369 88.0317 98.184 88.0398C98.2312 88.0479 98.2762 88.0655 98.3165 88.0915C98.3567 88.1175 98.3912 88.1513 98.418 88.191C98.4721 88.2703 98.4925 88.3679 98.4746 88.4622C98.4568 88.5565 98.4023 88.6399 98.323 88.694L71.093 107.744C71.0336 107.787 70.9619 107.808 70.889 107.806ZM189.234 161.79L222.244 141.608L194.275 153.245L189.234 161.79Z" fill="#1F2023"/>
<path d="M189.234 162.183C189.183 162.183 189.132 162.172 189.085 162.152C189.037 162.131 188.995 162.102 188.959 162.065C188.896 162.003 188.856 161.923 188.845 161.836C188.833 161.749 188.851 161.66 188.896 161.585L193.936 153.048C193.976 152.974 194.04 152.916 194.118 152.883L222.118 141.246C222.209 141.209 222.311 141.208 222.403 141.243C222.495 141.278 222.571 141.346 222.616 141.434C222.66 141.521 222.67 141.623 222.644 141.717C222.617 141.812 222.556 141.894 222.473 141.946L189.439 162.096C189.379 162.141 189.308 162.171 189.234 162.183V162.183ZM194.544 153.528L190.376 160.61L217.7 143.906L194.543 153.528H194.544Z" fill="#1F2023"/>
<path d="M194.275 153.245L205.066 158.761L222.245 141.608L194.275 153.245Z" fill="white"/>
<path d="M205.066 159.115C205.008 159.117 204.951 159.103 204.901 159.075L194.11 153.568C194.048 153.539 193.997 153.492 193.961 153.433C193.926 153.374 193.91 153.306 193.913 153.238C193.917 153.169 193.939 153.103 193.978 153.046C194.017 152.989 194.07 152.944 194.133 152.915L222.119 141.278C222.196 141.248 222.28 141.245 222.359 141.269C222.437 141.293 222.506 141.343 222.552 141.411C222.599 141.479 222.62 141.562 222.612 141.644C222.603 141.727 222.565 141.803 222.505 141.86L205.326 159.013C205.293 159.048 205.252 159.075 205.207 159.093C205.162 159.11 205.114 159.118 205.066 159.115V159.115ZM195.126 153.285L204.996 158.32L220.7 142.64L195.125 153.285H195.126Z" fill="#1F2023"/>
<path d="M222.245 141.608L186.705 150.09L178.625 145.471L222.245 141.608Z" fill="white"/>
<path d="M186.674 150.444C186.613 150.444 186.553 150.428 186.501 150.397L178.411 145.787C178.346 145.748 178.295 145.689 178.265 145.619C178.235 145.549 178.228 145.472 178.245 145.398C178.261 145.324 178.301 145.257 178.358 145.206C178.414 145.156 178.485 145.125 178.561 145.117L222.181 141.254C222.271 141.246 222.361 141.273 222.433 141.328C222.504 141.384 222.553 141.464 222.568 141.553C222.583 141.642 222.563 141.734 222.514 141.81C222.464 141.886 222.388 141.941 222.3 141.963L186.761 150.436L186.674 150.444V150.444ZM179.767 145.724L186.73 149.697L217.393 142.427L179.767 145.723V145.724Z" fill="#1F2023"/>
<path d="M186.706 150.09L189.234 161.79L194.275 153.245L222.245 141.608L186.706 150.09Z" fill="white"/>
<path d="M189.234 162.152H189.179C189.107 162.141 189.04 162.11 188.987 162.061C188.933 162.012 188.896 161.948 188.879 161.877L186.359 150.169C186.348 150.123 186.347 150.076 186.355 150.03C186.363 149.984 186.38 149.94 186.405 149.901C186.429 149.861 186.462 149.827 186.5 149.8C186.538 149.773 186.581 149.754 186.627 149.744L222.167 141.27C222.255 141.247 222.348 141.258 222.428 141.301C222.508 141.345 222.569 141.417 222.597 141.504C222.625 141.59 222.619 141.684 222.58 141.767C222.541 141.849 222.472 141.913 222.387 141.946L194.551 153.536L189.573 161.971C189.54 162.03 189.49 162.079 189.43 162.111C189.37 162.143 189.302 162.157 189.234 162.152V162.152ZM187.131 150.35L189.391 160.807L193.961 153.057C194.003 152.991 194.062 152.939 194.133 152.907L217.968 142.993L187.131 150.35Z" fill="#1F2023"/>
<path d="M181.948 163.419C181.864 163.417 181.783 163.388 181.717 163.336C181.651 163.284 181.603 163.213 181.58 163.132C181.557 163.051 181.561 162.965 181.59 162.887C181.62 162.808 181.674 162.741 181.744 162.695L183.059 161.853C183.146 161.805 183.248 161.792 183.345 161.817C183.441 161.841 183.525 161.9 183.58 161.984C183.634 162.067 183.655 162.167 183.639 162.265C183.623 162.363 183.57 162.452 183.492 162.513L182.162 163.363C182.097 163.4 182.023 163.42 181.948 163.419V163.419ZM62.713 199.47C62.6094 199.468 62.5105 199.426 62.437 199.353C62.3636 199.28 62.3213 199.182 62.319 199.078C62.319 198.863 62.491 198.688 62.705 198.684L64.58 198.644L65.848 198.605C65.9514 198.605 66.0511 198.643 66.1271 198.714C66.2032 198.784 66.2499 198.88 66.258 198.983C66.2603 199.035 66.252 199.088 66.2337 199.137C66.2154 199.186 66.1875 199.231 66.1515 199.269C66.1155 199.308 66.0722 199.338 66.0242 199.36C65.9762 199.381 65.9245 199.392 65.872 199.393L64.604 199.432L62.721 199.471H62.713V199.47ZM59.563 199.47C58.491 199.47 57.436 199.424 56.412 199.384C56.3083 199.378 56.2109 199.332 56.1404 199.256C56.0699 199.18 56.0317 199.079 56.034 198.975C56.036 198.923 56.0483 198.872 56.07 198.826C56.0918 198.779 56.1226 198.736 56.1607 198.701C56.1988 198.666 56.2434 198.639 56.292 198.621C56.3406 198.604 56.3923 198.596 56.444 198.598C57.467 198.637 58.514 198.668 59.594 198.684C59.6985 198.684 59.7987 198.726 59.8726 198.799C59.9465 198.873 59.988 198.974 59.988 199.078C59.987 199.131 59.9753 199.184 59.9536 199.233C59.9319 199.282 59.9007 199.326 59.8617 199.363C59.8228 199.399 59.7769 199.428 59.7268 199.446C59.6767 199.465 59.6234 199.473 59.57 199.471H59.563V199.47ZM69.014 199.258C68.9143 199.258 68.8185 199.22 68.7465 199.151C68.6746 199.082 68.6321 198.988 68.628 198.888C68.6249 198.836 68.632 198.785 68.6489 198.736C68.6658 198.687 68.6922 198.642 68.7266 198.603C68.761 198.565 68.8027 198.533 68.8492 198.511C68.8958 198.488 68.9463 198.475 68.998 198.472C70.0489 198.423 71.0993 198.363 72.149 198.291C72.201 198.287 72.2533 198.293 72.3028 198.309C72.3524 198.326 72.398 198.352 72.4371 198.387C72.4762 198.421 72.5078 198.463 72.5301 198.51C72.5525 198.558 72.565 198.609 72.567 198.661C72.5713 198.712 72.5653 198.764 72.5493 198.813C72.5333 198.862 72.5076 198.907 72.4737 198.946C72.4399 198.985 72.3986 199.017 72.3522 199.04C72.3059 199.062 72.2555 199.075 72.204 199.078C71.157 199.148 70.109 199.211 69.054 199.258H69.014ZM53.301 199.203C52.2492 199.126 51.1987 199.032 50.15 198.92C50.0467 198.908 49.9523 198.856 49.8873 198.775C49.8223 198.694 49.792 198.59 49.803 198.487C49.8068 198.435 49.8213 198.384 49.8456 198.338C49.87 198.292 49.9036 198.252 49.9443 198.219C49.9851 198.187 50.0321 198.163 50.0825 198.149C50.1328 198.136 50.1854 198.133 50.237 198.141C51.253 198.243 52.292 198.338 53.387 198.417C53.4409 198.413 53.4951 198.42 53.5461 198.438C53.5972 198.456 53.6439 198.485 53.6835 198.522C53.7231 198.559 53.7547 198.603 53.7763 198.653C53.7979 198.702 53.809 198.756 53.809 198.81C53.809 198.864 53.7979 198.918 53.7763 198.967C53.7547 199.017 53.7231 199.061 53.6835 199.098C53.6439 199.135 53.5972 199.164 53.5461 199.182C53.4951 199.2 53.4409 199.207 53.387 199.203H53.301V199.203ZM75.3 198.849C75.246 198.853 75.1918 198.846 75.1408 198.828C75.0898 198.81 75.043 198.781 75.0034 198.744C74.9638 198.707 74.9323 198.663 74.9107 198.613C74.8891 198.564 74.8779 198.51 74.8779 198.456C74.8779 198.402 74.8891 198.348 74.9107 198.299C74.9323 198.249 74.9638 198.205 75.0034 198.168C75.043 198.131 75.0898 198.102 75.1408 198.084C75.1918 198.066 75.246 198.059 75.3 198.063C76.347 197.976 77.387 197.882 78.45 197.779C78.5537 197.772 78.6563 197.805 78.7368 197.87C78.8174 197.936 78.87 198.03 78.884 198.133C78.8895 198.185 78.8847 198.237 78.8697 198.287C78.8548 198.337 78.8301 198.384 78.7971 198.424C78.7641 198.464 78.7234 198.497 78.6773 198.522C78.6313 198.546 78.5809 198.561 78.529 198.566C77.479 198.666 76.429 198.76 75.379 198.849H75.299H75.3ZM47.039 198.527H46.984C45.928 198.369 44.881 198.197 43.833 198.007C43.7287 197.987 43.6367 197.927 43.577 197.839C43.5174 197.751 43.4951 197.643 43.515 197.539C43.5349 197.435 43.5953 197.343 43.6831 197.283C43.7709 197.223 43.8787 197.201 43.983 197.221C44.983 197.409 46.023 197.583 47.07 197.732C47.1212 197.74 47.1704 197.757 47.2148 197.784C47.2592 197.811 47.2979 197.846 47.3286 197.888C47.3594 197.93 47.3816 197.977 47.394 198.027C47.4064 198.078 47.4088 198.13 47.401 198.181C47.3881 198.274 47.3433 198.359 47.2743 198.422C47.2053 198.485 47.1164 198.522 47.023 198.527H47.039ZM81.569 198.243C81.5149 198.251 81.4599 198.247 81.4074 198.232C81.3548 198.218 81.3059 198.192 81.2636 198.158C81.2213 198.123 81.1867 198.08 81.1618 198.032C81.137 197.983 81.1225 197.93 81.1192 197.875C81.116 197.821 81.1241 197.766 81.1429 197.715C81.1618 197.664 81.1911 197.617 81.2289 197.578C81.2668 197.539 81.3123 197.508 81.3628 197.487C81.4132 197.466 81.4674 197.456 81.522 197.457C82.572 197.341 83.622 197.215 84.673 197.079C84.7255 197.07 84.7792 197.073 84.8309 197.085C84.8826 197.098 84.9312 197.121 84.9739 197.152C85.0166 197.184 85.0524 197.224 85.0793 197.27C85.1062 197.316 85.1236 197.367 85.1305 197.42C85.1373 197.473 85.1334 197.526 85.1192 197.577C85.1049 197.629 85.0804 197.677 85.0472 197.718C85.0141 197.76 84.9729 197.794 84.9261 197.82C84.8794 197.845 84.8279 197.861 84.775 197.866L81.625 198.236L81.57 198.243H81.569ZM87.816 197.457C87.7208 197.456 87.629 197.422 87.5568 197.36C87.4847 197.298 87.4369 197.212 87.422 197.118C87.4142 197.066 87.4169 197.013 87.4298 196.963C87.4428 196.912 87.4657 196.864 87.4973 196.823C87.5288 196.781 87.5684 196.746 87.6137 196.72C87.659 196.694 87.7091 196.677 87.761 196.67L90.864 196.206C90.9147 196.197 90.9667 196.198 91.0169 196.21C91.0671 196.221 91.1145 196.242 91.1563 196.272C91.1982 196.302 91.2336 196.34 91.2605 196.384C91.2874 196.428 91.3052 196.477 91.313 196.528C91.3222 196.579 91.321 196.632 91.3097 196.683C91.2984 196.733 91.2771 196.782 91.2471 196.824C91.217 196.867 91.1788 196.903 91.1347 196.93C91.0905 196.958 91.0414 196.977 90.99 196.985L87.84 197.449L87.816 197.457V197.457ZM40.864 197.378H40.769C39.742 197.138 38.7204 196.876 37.705 196.591C37.6058 196.56 37.5225 196.492 37.4725 196.401C37.4225 196.31 37.4098 196.203 37.437 196.103C37.4664 196.003 37.5345 195.918 37.6262 195.868C37.7179 195.818 37.8257 195.807 37.926 195.836C38.902 196.111 39.918 196.379 40.95 196.623C41.0006 196.634 41.0484 196.655 41.0907 196.685C41.133 196.715 41.1688 196.753 41.1961 196.797C41.2233 196.841 41.2414 196.89 41.2493 196.941C41.2572 196.993 41.2547 197.045 41.242 197.095C41.2158 197.178 41.163 197.25 41.0917 197.3C41.0205 197.349 40.9348 197.374 40.848 197.37L40.864 197.378V197.378ZM94.03 196.473C93.9378 196.474 93.8482 196.443 93.7774 196.383C93.7066 196.324 93.6593 196.242 93.644 196.151C93.6276 196.048 93.6522 195.942 93.7126 195.857C93.7729 195.771 93.8642 195.713 93.967 195.694L97.063 195.144C97.1137 195.134 97.1659 195.134 97.2166 195.144C97.2673 195.155 97.3153 195.175 97.358 195.204C97.4006 195.234 97.4369 195.271 97.4647 195.315C97.4926 195.358 97.5113 195.407 97.52 195.458C97.5384 195.56 97.5156 195.666 97.4565 195.751C97.3975 195.836 97.3071 195.895 97.205 195.914L94.101 196.474H94.031L94.03 196.473ZM34.807 195.616C34.765 195.624 34.722 195.624 34.68 195.616C33.6817 195.266 32.6943 194.885 31.719 194.475C31.6294 194.43 31.5604 194.353 31.5258 194.259C31.4912 194.165 31.4937 194.061 31.5328 193.969C31.5719 193.877 31.6447 193.803 31.7363 193.762C31.8279 193.722 31.9315 193.718 32.026 193.751C32.963 194.144 33.948 194.538 34.94 194.876C34.9945 194.881 35.0474 194.898 35.0952 194.925C35.1431 194.951 35.1849 194.988 35.2182 195.031C35.2514 195.075 35.2754 195.125 35.2885 195.178C35.3017 195.231 35.3038 195.287 35.2946 195.341C35.2855 195.395 35.2653 195.446 35.2354 195.492C35.2055 195.538 35.1665 195.577 35.1208 195.608C35.0751 195.638 35.0236 195.658 34.9696 195.668C34.9156 195.677 34.8603 195.676 34.807 195.663V195.616V195.616ZM100.182 195.316C100.092 195.315 100.005 195.283 99.9346 195.226C99.8645 195.169 99.8157 195.09 99.796 195.002C99.7856 194.951 99.7853 194.899 99.7952 194.848C99.805 194.798 99.8247 194.749 99.8532 194.706C99.8818 194.663 99.9185 194.626 99.9613 194.597C100.004 194.568 100.052 194.548 100.103 194.538L103.183 193.892C103.234 193.882 103.286 193.881 103.337 193.891C103.388 193.901 103.436 193.921 103.479 193.949C103.522 193.978 103.559 194.014 103.588 194.057C103.617 194.1 103.638 194.148 103.648 194.199C103.66 194.249 103.661 194.301 103.652 194.352C103.643 194.403 103.624 194.451 103.596 194.494C103.568 194.538 103.532 194.575 103.489 194.604C103.447 194.633 103.399 194.653 103.348 194.663L100.261 195.309L100.181 195.317L100.182 195.316ZM106.342 193.995C106.239 194.004 106.136 193.972 106.056 193.907C105.976 193.841 105.925 193.747 105.914 193.644C105.902 193.541 105.932 193.438 105.996 193.356C106.059 193.275 106.152 193.222 106.255 193.208C107.279 192.972 108.295 192.736 109.311 192.484C109.521 192.434 109.733 192.564 109.783 192.775C109.796 192.826 109.799 192.878 109.791 192.93C109.783 192.982 109.765 193.031 109.738 193.076C109.711 193.121 109.675 193.16 109.633 193.19C109.591 193.221 109.543 193.243 109.492 193.255C108.476 193.499 107.46 193.743 106.428 193.971L106.341 193.995H106.342ZM29.002 193.153C28.9385 193.151 28.8763 193.135 28.82 193.106C27.8752 192.624 26.9529 192.098 26.056 191.532C26.0119 191.505 25.9737 191.469 25.9435 191.427C25.9133 191.385 25.8918 191.337 25.88 191.287C25.8683 191.236 25.8667 191.184 25.8753 191.133C25.8839 191.082 25.9024 191.033 25.93 190.989C25.9566 190.944 25.992 190.905 26.034 190.875C26.076 190.844 26.1239 190.822 26.1746 190.81C26.2253 190.798 26.2779 190.797 26.3292 190.806C26.3805 190.815 26.4294 190.835 26.473 190.863C27.3565 191.404 28.2605 191.911 29.183 192.382C29.2371 192.391 29.2887 192.412 29.3346 192.442C29.3806 192.472 29.4199 192.511 29.4502 192.557C29.4806 192.603 29.5012 192.654 29.511 192.708C29.5208 192.762 29.5194 192.818 29.507 192.871C29.4947 192.925 29.4715 192.975 29.439 193.019C29.4064 193.063 29.3652 193.101 29.3179 193.128C29.2705 193.156 29.218 193.174 29.1635 193.181C29.109 193.188 29.0537 193.183 29.001 193.168V193.153H29.002ZM112.493 192.508C112.44 192.518 112.385 192.516 112.333 192.504C112.28 192.491 112.23 192.469 112.187 192.436C112.144 192.404 112.107 192.364 112.08 192.317C112.053 192.27 112.035 192.218 112.029 192.165C112.022 192.111 112.027 192.057 112.042 192.005C112.058 191.953 112.083 191.905 112.118 191.863C112.152 191.822 112.195 191.788 112.243 191.763C112.291 191.739 112.344 191.724 112.398 191.721L115.438 190.934C115.541 190.911 115.649 190.929 115.739 190.983C115.829 191.038 115.894 191.126 115.921 191.228C115.948 191.33 115.934 191.439 115.882 191.531C115.83 191.622 115.745 191.691 115.644 191.721C114.635 191.994 113.619 192.256 112.595 192.508C112.556 192.519 112.516 192.519 112.477 192.508H112.493V192.508ZM118.573 190.863C118.488 190.864 118.404 190.837 118.336 190.786C118.268 190.735 118.219 190.662 118.196 190.58C118.169 190.479 118.183 190.371 118.234 190.28C118.286 190.189 118.371 190.121 118.471 190.092L121.488 189.219C121.587 189.19 121.694 189.2 121.785 189.249C121.877 189.298 121.945 189.38 121.976 189.479C121.992 189.528 121.997 189.581 121.992 189.632C121.987 189.684 121.971 189.734 121.946 189.779C121.921 189.825 121.887 189.865 121.847 189.897C121.806 189.929 121.759 189.952 121.709 189.966C120.709 190.266 119.7 190.564 118.684 190.847C118.644 190.862 118.601 190.868 118.558 190.863H118.574H118.573ZM23.685 189.848C23.5997 189.848 23.5168 189.821 23.449 189.769C22.5973 189.138 21.777 188.466 20.991 187.755C20.925 187.68 20.8898 187.583 20.8926 187.484C20.8953 187.384 20.9358 187.289 21.0058 187.219C21.0758 187.148 21.1701 187.106 21.2696 187.102C21.3692 187.098 21.4665 187.132 21.542 187.197C22.31 187.892 23.112 188.548 23.945 189.164C24.119 189.294 24.154 189.541 24.023 189.714C23.9811 189.761 23.9287 189.798 23.87 189.821C23.8113 189.845 23.7479 189.854 23.685 189.848V189.848ZM124.591 189.061C124.508 189.062 124.426 189.036 124.359 188.986C124.292 188.937 124.244 188.866 124.221 188.786C124.205 188.736 124.199 188.684 124.204 188.632C124.208 188.58 124.223 188.53 124.247 188.484C124.271 188.437 124.304 188.397 124.345 188.363C124.385 188.33 124.431 188.305 124.481 188.29C125.489 187.983 126.481 187.66 127.474 187.346C127.523 187.329 127.575 187.322 127.627 187.325C127.679 187.329 127.729 187.343 127.776 187.366C127.822 187.39 127.863 187.423 127.896 187.462C127.93 187.502 127.955 187.548 127.97 187.598C128.002 187.697 127.994 187.805 127.946 187.898C127.899 187.99 127.817 188.061 127.718 188.093C126.726 188.416 125.726 188.731 124.71 189.046C124.672 189.062 124.632 189.069 124.591 189.069V189.061ZM130.585 187.118C130.532 187.129 130.477 187.129 130.424 187.119C130.371 187.108 130.321 187.087 130.277 187.057C130.232 187.026 130.194 186.987 130.165 186.941C130.136 186.895 130.117 186.844 130.108 186.791C130.1 186.737 130.102 186.683 130.116 186.63C130.129 186.578 130.152 186.529 130.185 186.486C130.218 186.443 130.259 186.407 130.306 186.38C130.353 186.354 130.405 186.337 130.459 186.331C131.459 185.993 132.452 185.654 133.429 185.308C133.635 185.24 133.859 185.348 133.933 185.552C133.951 185.6 133.958 185.651 133.956 185.702C133.954 185.753 133.941 185.803 133.919 185.849C133.897 185.896 133.866 185.937 133.828 185.971C133.79 186.005 133.745 186.031 133.697 186.048C132.712 186.394 131.72 186.74 130.711 187.078L130.585 187.118ZM19.045 185.623C18.9886 185.622 18.933 185.61 18.8815 185.587C18.8301 185.564 18.7839 185.531 18.746 185.489C18.0383 184.698 17.3756 183.868 16.761 183.003C16.7275 182.961 16.7029 182.913 16.6886 182.862C16.6743 182.81 16.6707 182.756 16.6779 182.703C16.6852 182.651 16.7031 182.6 16.7307 182.554C16.7583 182.508 16.795 182.468 16.8384 182.437C16.8819 182.406 16.9312 182.384 16.9834 182.373C17.0356 182.361 17.0896 182.361 17.1421 182.371C17.1946 182.381 17.2444 182.402 17.2886 182.432C17.3327 182.462 17.3703 182.501 17.399 182.546C17.9979 183.388 18.645 184.195 19.337 184.962C19.4097 185.037 19.4504 185.137 19.4504 185.242C19.4504 185.346 19.4097 185.446 19.337 185.521C19.2985 185.558 19.2528 185.587 19.2028 185.606C19.1528 185.625 19.0994 185.633 19.046 185.631V185.623H19.045ZM136.525 185.041C136.445 185.039 136.367 185.013 136.301 184.967C136.235 184.92 136.184 184.856 136.155 184.781C136.137 184.732 136.129 184.681 136.132 184.629C136.134 184.578 136.146 184.527 136.168 184.48C136.19 184.433 136.221 184.391 136.259 184.357C136.297 184.322 136.341 184.295 136.39 184.277C137.39 183.915 138.367 183.546 139.344 183.184C139.437 183.162 139.535 183.175 139.619 183.22C139.704 183.265 139.769 183.339 139.803 183.428C139.837 183.518 139.837 183.617 139.803 183.706C139.769 183.796 139.704 183.87 139.62 183.915C138.643 184.285 137.659 184.647 136.658 185.009C136.618 185.034 136.571 185.048 136.524 185.049V185.041H136.525ZM142.416 182.814C142.313 182.83 142.208 182.805 142.123 182.744C142.038 182.683 141.98 182.592 141.962 182.49C141.943 182.387 141.966 182.281 142.024 182.195C142.082 182.109 142.172 182.048 142.274 182.027L145.196 180.87C145.396 180.789 145.625 180.884 145.708 181.083C145.748 181.18 145.748 181.289 145.708 181.386C145.669 181.484 145.592 181.561 145.496 181.603L142.566 182.798C142.517 182.814 142.467 182.822 142.416 182.822V182.814V182.814ZM15.406 180.516C15.3351 180.517 15.2654 180.499 15.2044 180.463C15.1433 180.427 15.0934 180.374 15.06 180.312C14.5455 179.382 14.0854 178.423 13.682 177.44C13.6422 177.343 13.6426 177.234 13.6831 177.137C13.7236 177.04 13.8009 176.964 13.898 176.924C13.995 176.884 14.1039 176.885 14.2007 176.925C14.2975 176.966 14.3742 177.043 14.414 177.14C14.801 178.1 15.248 179.032 15.754 179.934C15.854 180.126 15.784 180.362 15.596 180.469C15.5373 180.499 15.4721 180.516 15.406 180.516V180.516ZM148.26 180.461C148.182 180.463 148.105 180.44 148.04 180.397C147.975 180.353 147.926 180.29 147.898 180.217C147.858 180.122 147.858 180.015 147.896 179.92C147.934 179.824 148.009 179.747 148.103 179.706C149.087 179.296 150.056 178.919 151.001 178.479C151.096 178.443 151.201 178.445 151.294 178.484C151.388 178.523 151.462 178.597 151.503 178.69C151.544 178.783 151.547 178.888 151.512 178.983C151.478 179.079 151.408 179.157 151.317 179.202L148.41 180.43C148.363 180.452 148.312 180.462 148.26 180.461V180.461ZM154.042 177.967C153.966 177.966 153.892 177.944 153.828 177.904C153.764 177.864 153.713 177.807 153.679 177.739C153.657 177.692 153.645 177.64 153.643 177.588C153.641 177.536 153.65 177.484 153.67 177.435C153.689 177.386 153.718 177.342 153.755 177.305C153.791 177.268 153.835 177.239 153.884 177.219C154.861 176.779 155.814 176.354 156.744 175.921C156.838 175.885 156.942 175.886 157.035 175.924C157.128 175.961 157.203 176.033 157.245 176.124C157.287 176.215 157.293 176.319 157.261 176.414C157.229 176.51 157.162 176.589 157.074 176.637C156.137 177.07 155.184 177.503 154.199 177.936C154.15 177.958 154.096 177.969 154.042 177.967V177.967ZM159.768 175.339C159.694 175.341 159.621 175.321 159.558 175.282C159.495 175.243 159.445 175.186 159.414 175.119C159.391 175.073 159.378 175.022 159.374 174.971C159.371 174.919 159.378 174.867 159.395 174.818C159.411 174.769 159.437 174.724 159.472 174.685C159.506 174.646 159.547 174.615 159.594 174.592C160.571 174.135 161.517 173.679 162.43 173.23C162.523 173.189 162.629 173.185 162.725 173.22C162.821 173.256 162.899 173.326 162.944 173.418C162.989 173.509 162.996 173.615 162.965 173.712C162.934 173.809 162.867 173.891 162.777 173.939L159.933 175.308C159.881 175.33 159.825 175.34 159.768 175.339V175.339ZM13.028 174.686C12.9418 174.686 12.8582 174.657 12.7899 174.604C12.7217 174.552 12.6725 174.478 12.65 174.395C12.3616 173.373 12.1302 172.335 11.957 171.287C11.9403 171.183 11.9657 171.076 12.0277 170.99C12.0897 170.905 12.1831 170.847 12.2875 170.831C12.3918 170.814 12.4986 170.839 12.5842 170.901C12.6698 170.963 12.7273 171.057 12.744 171.161C12.902 172.191 13.117 173.209 13.39 174.214C13.4045 174.264 13.4091 174.316 13.4035 174.367C13.3979 174.418 13.3822 174.468 13.3573 174.514C13.3324 174.559 13.2988 174.599 13.2584 174.631C13.218 174.664 13.1717 174.688 13.122 174.702L13.028 174.686V174.686ZM165.408 172.586C165.334 172.587 165.261 172.567 165.198 172.528C165.135 172.489 165.085 172.432 165.053 172.365C165.006 172.272 164.998 172.164 165.031 172.066C165.064 171.967 165.134 171.885 165.227 171.838C166.195 171.35 167.133 170.878 168.031 170.406C168.123 170.366 168.226 170.363 168.32 170.397C168.414 170.43 168.492 170.498 168.538 170.587C168.584 170.676 168.595 170.779 168.568 170.875C168.541 170.972 168.478 171.054 168.393 171.106C167.495 171.57 166.558 172.05 165.581 172.538C165.528 172.568 165.469 172.584 165.408 172.585V172.586ZM171 169.682C170.929 169.683 170.859 169.665 170.798 169.628C170.736 169.592 170.686 169.54 170.653 169.477C170.605 169.385 170.594 169.277 170.624 169.178C170.653 169.078 170.72 168.993 170.811 168.942C171.788 168.422 172.709 167.919 173.576 167.447C173.621 167.414 173.673 167.392 173.727 167.381C173.782 167.37 173.838 167.37 173.893 167.382C173.947 167.395 173.998 167.418 174.043 167.452C174.087 167.485 174.124 167.528 174.151 167.576C174.178 167.625 174.194 167.679 174.199 167.735C174.203 167.79 174.196 167.846 174.177 167.899C174.159 167.951 174.129 167.999 174.091 168.039C174.052 168.079 174.006 168.111 173.954 168.132C173.087 168.612 172.166 169.115 171.181 169.642C171.132 169.667 171.079 169.681 171.024 169.682H171V169.682ZM11.972 168.525C11.8717 168.525 11.7752 168.487 11.7022 168.418C11.6291 168.349 11.5851 168.255 11.579 168.155C11.579 167.542 11.531 166.912 11.531 166.291V164.977C11.5318 164.925 11.5432 164.873 11.5645 164.826C11.5859 164.778 11.6166 164.735 11.655 164.7C11.6933 164.665 11.7384 164.638 11.7876 164.62C11.8368 164.603 11.8889 164.596 11.941 164.599C11.9927 164.601 12.0436 164.613 12.0906 164.635C12.1376 164.657 12.1799 164.688 12.215 164.726C12.2501 164.764 12.2774 164.808 12.2952 164.857C12.313 164.906 12.3211 164.957 12.319 165.009V166.291C12.319 166.897 12.319 167.511 12.366 168.108C12.3692 168.16 12.3622 168.212 12.3453 168.261C12.3285 168.31 12.3021 168.355 12.2677 168.393C12.2333 168.432 12.1916 168.464 12.145 168.486C12.0983 168.509 12.0477 168.522 11.996 168.525H11.972V168.525ZM176.514 166.637C176.428 166.636 176.345 166.607 176.278 166.554C176.21 166.501 176.161 166.428 176.139 166.345C176.117 166.263 176.122 166.175 176.154 166.095C176.186 166.016 176.243 165.949 176.317 165.905C177.333 165.323 178.247 164.795 179.034 164.331C179.078 164.304 179.128 164.286 179.179 164.278C179.231 164.27 179.283 164.272 179.334 164.284C179.385 164.297 179.432 164.319 179.474 164.35C179.516 164.381 179.551 164.42 179.578 164.465C179.688 164.653 179.628 164.893 179.444 165.008C178.542 165.548 177.631 166.073 176.711 166.582C176.658 166.613 176.598 166.631 176.537 166.637H176.514V166.637ZM12.248 162.254H12.193C12.089 162.239 11.9953 162.183 11.9319 162.099C11.8685 162.016 11.8405 161.91 11.854 161.806C11.996 160.775 12.177 159.721 12.414 158.658C12.464 158.448 12.674 158.315 12.886 158.359C12.9369 158.37 12.985 158.391 13.0277 158.421C13.0704 158.451 13.1068 158.489 13.1347 158.533C13.1626 158.577 13.1815 158.626 13.1903 158.677C13.1991 158.729 13.1976 158.781 13.186 158.832C12.9563 159.843 12.7721 160.864 12.634 161.892C12.626 161.989 12.5821 162.081 12.5108 162.147C12.4395 162.214 12.3458 162.252 12.248 162.254V162.254ZM13.618 156.124C13.579 156.132 13.5389 156.132 13.5 156.124C13.4503 156.109 13.4041 156.084 13.3641 156.051C13.3242 156.017 13.2911 155.977 13.267 155.931C13.2428 155.885 13.228 155.834 13.2233 155.783C13.2187 155.731 13.2244 155.679 13.24 155.629C13.548 154.638 13.91 153.631 14.312 152.639C14.3584 152.553 14.4349 152.488 14.5267 152.456C14.6185 152.423 14.7191 152.426 14.8091 152.463C14.899 152.5 14.972 152.57 15.0139 152.657C15.0558 152.745 15.0637 152.846 15.036 152.939C14.65 153.906 14.296 154.889 13.989 155.865C13.9636 155.942 13.9138 156.01 13.8471 156.056C13.7805 156.103 13.7004 156.127 13.619 156.125L13.618 156.124ZM15.982 150.302C15.9069 150.324 15.8266 150.322 15.753 150.295C15.7064 150.272 15.6647 150.241 15.6303 150.202C15.596 150.163 15.5697 150.118 15.5529 150.069C15.536 150.02 15.5291 149.968 15.5324 149.916C15.5356 149.864 15.5491 149.814 15.572 149.767C16.037 148.831 16.549 147.895 17.092 146.982C17.1172 146.937 17.1513 146.897 17.1922 146.866C17.2331 146.834 17.2799 146.811 17.3299 146.797C17.3799 146.784 17.4321 146.781 17.4833 146.788C17.5345 146.796 17.5837 146.813 17.628 146.84C17.815 146.953 17.878 147.194 17.77 147.383C17.234 148.273 16.738 149.193 16.28 150.121C16.2439 150.173 16.1959 150.217 16.1399 150.247C16.0839 150.277 16.0216 150.294 15.958 150.295L15.982 150.302V150.302ZM19.187 144.889C19.0831 144.892 18.982 144.856 18.904 144.787C18.8617 144.758 18.8256 144.721 18.7979 144.677C18.7701 144.634 18.7513 144.586 18.7424 144.535C18.7336 144.485 18.7349 144.433 18.7463 144.383C18.7578 144.333 18.7791 144.286 18.809 144.244C19.4126 143.373 20.0484 142.525 20.715 141.702C20.7807 141.62 20.8762 141.568 20.9804 141.557C21.0846 141.546 21.1889 141.577 21.2705 141.643C21.352 141.708 21.4041 141.804 21.4153 141.908C21.4264 142.012 21.3957 142.116 21.33 142.198C20.67 143.002 20.0444 143.835 19.455 144.692C19.4246 144.745 19.3826 144.79 19.3321 144.824C19.2817 144.858 19.2242 144.88 19.164 144.889H19.187V144.889ZM23.126 140.011C23.0483 140.014 22.9715 139.993 22.9059 139.951C22.8402 139.91 22.7887 139.849 22.758 139.778C22.7273 139.706 22.7189 139.627 22.7339 139.551C22.7488 139.475 22.7865 139.405 22.842 139.35C23.5652 138.575 24.3247 137.834 25.118 137.131C25.1539 137.094 25.1969 137.065 25.2443 137.045C25.2916 137.025 25.3426 137.015 25.394 137.015C25.4454 137.015 25.4963 137.025 25.5437 137.045C25.5911 137.065 25.634 137.094 25.67 137.131C25.707 137.168 25.7363 137.211 25.7563 137.259C25.7764 137.307 25.7867 137.359 25.7867 137.411C25.7867 137.463 25.7764 137.514 25.7563 137.562C25.7363 137.61 25.707 137.653 25.67 137.69C24.8921 138.38 24.1479 139.108 23.44 139.87C23.4012 139.915 23.353 139.951 23.2987 139.975C23.2444 139.999 23.1854 140.011 23.126 140.01V140.011ZM27.836 135.77C27.7767 135.77 27.7182 135.757 27.665 135.731C27.6117 135.705 27.5652 135.667 27.529 135.62C27.4651 135.536 27.4367 135.431 27.4498 135.327C27.4629 135.222 27.5164 135.127 27.599 135.062C28.025 134.747 28.45 134.432 28.883 134.125C28.9253 134.093 28.9736 134.069 29.0252 134.056C29.0767 134.043 29.1303 134.041 29.1828 134.049C29.2353 134.057 29.2856 134.076 29.3307 134.104C29.3758 134.133 29.4147 134.17 29.445 134.213C29.4754 134.257 29.4967 134.306 29.5075 134.358C29.5183 134.41 29.5185 134.464 29.508 134.516C29.4976 134.568 29.4767 134.618 29.4466 134.661C29.4165 134.705 29.3778 134.743 29.333 134.771C28.907 135.07 28.49 135.376 28.08 135.691C28.0097 135.744 27.9238 135.772 27.836 135.77V135.77ZM204.475 88.757C204.425 88.7584 204.376 88.7493 204.33 88.7304C204.284 88.7114 204.242 88.683 204.208 88.647C204.171 88.6112 204.142 88.5684 204.122 88.5212C204.103 88.4739 204.092 88.4232 204.092 88.372C204.092 88.3208 204.103 88.2701 204.122 88.2229C204.142 88.1756 204.171 88.1329 204.208 88.097C204.208 88.097 204.594 87.687 205.263 86.947C205.295 86.9006 205.336 86.8615 205.383 86.8322C205.431 86.803 205.485 86.7843 205.541 86.7775C205.596 86.7706 205.653 86.7757 205.706 86.7924C205.76 86.8091 205.809 86.8371 205.851 86.8745C205.893 86.9118 205.926 86.9576 205.949 87.0089C205.972 87.0602 205.983 87.1158 205.983 87.1719C205.982 87.228 205.97 87.2833 205.946 87.3342C205.923 87.3851 205.888 87.4304 205.846 87.467C205.169 88.254 204.775 88.639 204.775 88.639C204.736 88.6791 204.69 88.7105 204.638 88.7308C204.586 88.7512 204.531 88.7601 204.475 88.757V88.757ZM207.626 85.209C207.531 85.2084 207.439 85.1749 207.366 85.114C207.329 85.0782 207.3 85.0354 207.28 84.9882C207.261 84.9409 207.25 84.8902 207.25 84.839C207.25 84.7878 207.261 84.7371 207.28 84.6899C207.3 84.6426 207.329 84.5999 207.366 84.564C207.973 83.84 208.65 82.99 209.375 82.116C209.423 82.055 209.489 82.0097 209.563 81.9859C209.637 81.962 209.717 81.9607 209.792 81.9821C209.867 82.0036 209.934 82.0467 209.984 82.1061C210.034 82.1656 210.066 82.2386 210.075 82.316C210.081 82.3673 210.076 82.4193 210.061 82.4688C210.046 82.5182 210.022 82.5642 209.989 82.604C209.328 83.436 208.653 84.2571 207.965 85.067C207.925 85.117 207.873 85.1562 207.813 85.1809C207.754 85.2057 207.69 85.2154 207.626 85.209V85.209ZM211.564 80.252C211.479 80.2484 211.398 80.221 211.328 80.173C211.245 80.1077 211.191 80.0125 211.178 79.9079C211.165 79.8032 211.194 79.6977 211.258 79.614C211.897 78.7776 212.522 77.9304 213.132 77.073C213.195 76.9938 213.286 76.9417 213.386 76.9273C213.486 76.913 213.588 76.9375 213.67 76.9958C213.753 77.0541 213.81 77.1419 213.83 77.241C213.85 77.3402 213.832 77.4432 213.778 77.529C213.132 78.426 212.502 79.284 211.879 80.094C211.848 80.1421 211.806 80.1825 211.757 80.2125C211.708 80.2424 211.653 80.261 211.596 80.267L211.564 80.252V80.252ZM215.266 75.082C215.194 75.084 215.123 75.0658 215.06 75.0294C214.998 74.993 214.947 74.9399 214.914 74.8761C214.88 74.8123 214.865 74.7403 214.87 74.6684C214.875 74.5964 214.901 74.5273 214.943 74.469C215.533 73.5951 216.108 72.7109 216.668 71.817C216.725 71.7296 216.813 71.6676 216.915 71.6441C217.016 71.6206 217.123 71.6374 217.212 71.691C217.394 71.809 217.447 72.051 217.33 72.234C216.767 73.1353 216.19 74.0271 215.597 74.909C215.563 74.9588 215.519 75.0003 215.467 75.0302C215.415 75.0602 215.357 75.0779 215.297 75.082H215.267H215.266ZM218.637 69.7C218.568 69.7012 218.5 69.6821 218.441 69.645C218.396 69.6197 218.357 69.5857 218.325 69.5449C218.293 69.5041 218.27 69.4574 218.257 69.4075C218.244 69.3576 218.241 69.3056 218.248 69.2545C218.255 69.2034 218.272 69.1543 218.299 69.11C218.825 68.199 219.329 67.2754 219.811 66.34C219.861 66.2512 219.944 66.1854 220.042 66.1563C220.14 66.1273 220.245 66.1373 220.336 66.1843C220.427 66.2312 220.496 66.3115 220.529 66.4082C220.561 66.5049 220.555 66.6106 220.512 66.703C220.022 67.6484 219.51 68.582 218.976 69.503C218.944 69.5582 218.9 69.6049 218.847 69.6392C218.793 69.6735 218.732 69.6943 218.669 69.7H218.637ZM221.56 64.059C221.505 64.0703 221.449 64.0703 221.394 64.059C221.347 64.0378 221.305 64.0074 221.27 63.9696C221.234 63.9318 221.207 63.8874 221.19 63.8389C221.172 63.7904 221.164 63.7389 221.167 63.6874C221.17 63.6359 221.183 63.5854 221.205 63.539C221.655 62.556 222.072 61.58 222.434 60.636C222.452 60.5872 222.48 60.5426 222.516 60.5047C222.552 60.4667 222.595 60.4363 222.642 60.4151C222.69 60.3939 222.741 60.3823 222.793 60.3811C222.846 60.3799 222.897 60.389 222.946 60.408C223.148 60.488 223.25 60.715 223.174 60.919C222.796 61.879 222.387 62.871 221.922 63.862C221.887 63.9193 221.839 63.9672 221.781 64.0016C221.724 64.0359 221.659 64.0556 221.592 64.059H221.56ZM223.852 58.142H223.734C223.634 58.1096 223.552 58.0396 223.503 57.9469C223.454 57.8542 223.444 57.7463 223.474 57.646C223.782 56.6461 224.045 55.6327 224.261 54.609C224.283 54.5066 224.344 54.4171 224.432 54.3602C224.476 54.332 224.524 54.3127 224.575 54.3033C224.626 54.2939 224.679 54.2947 224.729 54.3055C224.78 54.3163 224.828 54.3371 224.871 54.3665C224.914 54.3959 224.95 54.4334 224.978 54.4769C225.006 54.5204 225.026 54.569 225.035 54.62C225.045 54.671 225.044 54.7233 225.033 54.774C224.798 55.8299 224.535 56.8796 224.246 57.922C224.212 57.9889 224.16 58.0449 224.096 58.0838C224.032 58.1227 223.958 58.1429 223.883 58.142H223.852ZM225.175 51.942H225.135C225.032 51.9319 224.937 51.8816 224.871 51.8021C224.805 51.7225 224.772 51.6201 224.781 51.517C224.781 51.187 224.844 50.864 224.86 50.533C224.86 49.802 224.93 49.078 224.954 48.378C224.954 48.3259 224.964 48.2743 224.985 48.2263C225.005 48.1784 225.035 48.135 225.072 48.0989C225.11 48.0628 225.154 48.0348 225.203 48.0164C225.252 47.998 225.304 47.9897 225.356 47.992C225.46 47.9959 225.558 48.0398 225.63 48.1146C225.702 48.1894 225.742 48.2892 225.742 48.393C225.742 49.109 225.687 49.833 225.648 50.581C225.648 50.919 225.6 51.249 225.568 51.588C225.556 51.6846 225.51 51.7737 225.438 51.8387C225.366 51.9038 225.272 51.9405 225.175 51.942V51.942ZM225.356 45.6C225.253 45.6 225.154 45.5598 225.081 45.4878C225.007 45.4159 224.964 45.3179 224.962 45.215C224.962 44.145 224.884 43.09 224.805 42.067C224.801 42.0157 224.807 41.9641 224.823 41.9151C224.838 41.8661 224.864 41.8209 224.898 41.782C224.932 41.7431 224.973 41.7114 225.019 41.6887C225.065 41.6661 225.116 41.6529 225.167 41.65C225.219 41.6458 225.271 41.6518 225.32 41.6677C225.369 41.6836 225.415 41.7091 225.455 41.7427C225.494 41.7764 225.527 41.8175 225.55 41.8637C225.574 41.9099 225.588 41.9603 225.592 42.012C225.672 43.042 225.726 44.113 225.75 45.199C225.75 45.414 225.58 45.592 225.364 45.6H225.356V45.6ZM224.844 39.306C224.749 39.3053 224.657 39.2708 224.585 39.2087C224.513 39.1467 224.465 39.061 224.45 38.967C224.302 37.9313 224.11 36.9024 223.875 35.883C223.864 35.8313 223.863 35.7778 223.872 35.7256C223.881 35.6735 223.901 35.6237 223.929 35.5791C223.958 35.5345 223.995 35.4959 224.038 35.4656C224.082 35.4353 224.131 35.4139 224.182 35.4025C224.234 35.3911 224.288 35.3901 224.34 35.3994C224.392 35.4087 224.442 35.4282 224.486 35.4567C224.531 35.4853 224.57 35.5224 224.6 35.5658C224.63 35.6093 224.652 35.6583 224.663 35.71C224.891 36.717 225.088 37.78 225.246 38.857C225.26 38.96 225.233 39.0644 225.172 39.1482C225.11 39.232 225.018 39.2885 224.916 39.306H224.844V39.306ZM223.419 33.136C223.336 33.1373 223.254 33.1121 223.186 33.0642C223.118 33.0162 223.067 32.9479 223.04 32.869C222.718 31.879 222.343 30.9076 221.914 29.959C221.892 29.9119 221.88 29.861 221.878 29.8092C221.876 29.7574 221.884 29.7057 221.902 29.657C221.92 29.6084 221.947 29.5637 221.982 29.5256C222.018 29.4875 222.06 29.4567 222.107 29.435C222.154 29.4133 222.205 29.401 222.257 29.399C222.309 29.3969 222.36 29.4051 222.409 29.423C222.458 29.4409 222.502 29.4682 222.54 29.5034C222.578 29.5386 222.609 29.5809 222.631 29.628C223.072 30.605 223.459 31.605 223.789 32.625C223.822 32.7232 223.815 32.8303 223.769 32.9232C223.723 33.016 223.643 33.0871 223.545 33.121C223.503 33.1256 223.46 33.1229 223.419 33.113V33.137V33.136ZM220.788 27.386C220.721 27.3864 220.654 27.37 220.595 27.3382C220.536 27.3064 220.486 27.2603 220.449 27.204C219.906 26.3179 219.3 25.4714 218.637 24.671C218.572 24.5904 218.541 24.4872 218.551 24.384C218.562 24.2807 218.613 24.1859 218.693 24.12C218.732 24.0864 218.777 24.061 218.826 24.0451C218.875 24.0293 218.927 24.0234 218.978 24.0278C219.029 24.0322 219.079 24.0467 219.124 24.0706C219.17 24.0945 219.21 24.1273 219.243 24.167C219.927 24.9885 220.554 25.8562 221.119 26.764C221.158 26.8227 221.18 26.8911 221.183 26.9615C221.186 27.032 221.169 27.1019 221.135 27.1636C221.101 27.2253 221.051 27.2764 220.989 27.3114C220.928 27.3464 220.858 27.3639 220.788 27.362V27.385V27.386ZM216.739 22.53C216.644 22.5285 216.553 22.4954 216.479 22.436C215.704 21.745 214.877 21.1139 214.006 20.548C213.961 20.5206 213.923 20.4846 213.892 20.4421C213.862 20.3997 213.84 20.3515 213.829 20.3005C213.817 20.2496 213.816 20.1968 213.825 20.1453C213.834 20.0938 213.853 20.0447 213.881 20.0007C213.91 19.9567 213.946 19.9188 213.989 19.8892C214.032 19.8597 214.081 19.839 214.132 19.8284C214.183 19.8178 214.236 19.8175 214.288 19.8276C214.339 19.8377 214.388 19.8579 214.431 19.887C215.338 20.4745 216.199 21.1294 217.007 21.846C217.08 21.9209 217.12 22.0211 217.12 22.1255C217.12 22.2299 217.08 22.3302 217.007 22.405C216.933 22.4708 216.838 22.5071 216.739 22.507V22.53ZM211.439 19.092C211.384 19.1029 211.328 19.1029 211.273 19.092C210.324 18.661 209.348 18.292 208.351 17.991C208.297 17.9777 208.247 17.9538 208.203 17.9206C208.159 17.8874 208.122 17.8457 208.094 17.7978C208.067 17.75 208.049 17.6971 208.042 17.6423C208.036 17.5875 208.04 17.5319 208.056 17.4789C208.071 17.4259 208.097 17.3765 208.132 17.3338C208.167 17.291 208.21 17.2557 208.259 17.23C208.308 17.2044 208.361 17.1888 208.416 17.1844C208.471 17.1799 208.527 17.1866 208.579 17.204C209.612 17.513 210.622 17.891 211.604 18.337C211.651 18.3582 211.693 18.3885 211.728 18.4263C211.763 18.464 211.79 18.5083 211.808 18.5567C211.825 18.6051 211.833 18.6565 211.831 18.7079C211.828 18.7593 211.815 18.8096 211.793 18.856C211.76 18.9214 211.709 18.976 211.646 19.0135C211.583 19.0511 211.511 19.07 211.438 19.068V19.092H211.439ZM205.373 17.243H205.303C204.273 17.0642 203.234 16.946 202.191 16.889C202.139 16.8859 202.089 16.8727 202.042 16.8501C201.996 16.8275 201.954 16.7959 201.92 16.7572C201.885 16.7185 201.859 16.6733 201.842 16.6244C201.825 16.5755 201.818 16.5237 201.821 16.472C201.821 16.4192 201.831 16.3669 201.853 16.3187C201.874 16.2704 201.906 16.2273 201.945 16.1922C201.985 16.1572 202.031 16.131 202.082 16.1154C202.132 16.0999 202.186 16.0953 202.238 16.102C203.31 16.162 204.378 16.283 205.436 16.464C205.65 16.504 205.793 16.706 205.759 16.92C205.739 17.0069 205.69 17.0842 205.62 17.1389C205.549 17.1936 205.462 17.2222 205.373 17.22V17.243V17.243ZM197.442 17.015C197.34 17.0196 197.24 16.9843 197.163 16.9166C197.086 16.8489 197.039 16.754 197.03 16.6519C197.022 16.5499 197.054 16.4487 197.119 16.3696C197.184 16.2905 197.277 16.2397 197.379 16.228C197.901 16.1466 198.426 16.0942 198.954 16.071C199.007 16.0658 199.06 16.0713 199.111 16.0871C199.161 16.103 199.208 16.1289 199.248 16.1633C199.289 16.1977 199.322 16.24 199.345 16.2874C199.369 16.3349 199.383 16.3866 199.386 16.4396C199.389 16.4925 199.382 16.5455 199.364 16.5955C199.346 16.6454 199.318 16.6913 199.282 16.7302C199.246 16.7692 199.203 16.8005 199.155 16.8223C199.106 16.8441 199.054 16.8559 199.001 16.857C198.048 16.913 197.481 16.999 197.481 16.999L197.441 17.015H197.442Z" fill="#D1D3D4"/>
<path d="M2.33299 48.385L25.185 29.727C25.7143 29.2948 26.3936 29.0905 27.0735 29.159C27.7535 29.2274 28.3784 29.563 28.811 30.092L38.042 41.374C38.2566 41.6362 38.4174 41.9382 38.5152 42.2626C38.613 42.587 38.6459 42.9275 38.612 43.2647C38.5781 43.6018 38.4781 43.929 38.3176 44.2274C38.1572 44.5259 37.9395 44.7897 37.677 45.004L14.825 63.662C14.2956 64.0942 13.6164 64.2985 12.9364 64.23C12.2565 64.1616 11.6316 63.826 11.199 63.297L1.96799 52.015C1.75339 51.7528 1.59259 51.4508 1.49478 51.1264C1.39697 50.802 1.36408 50.4615 1.39797 50.1243C1.43187 49.7872 1.5319 49.46 1.69234 49.1616C1.85278 48.8631 2.07048 48.5992 2.33299 48.385V48.385Z" fill="white"/>
<path d="M13.122 64.8701H12.878C12.2594 64.8001 11.6935 64.4889 11.303 64.0041L1.29999 51.8081C1.09788 51.5669 0.946073 51.2877 0.853501 50.987C0.760929 50.6862 0.729465 50.37 0.760961 50.0569C0.792457 49.7438 0.886277 49.4401 1.0369 49.1639C1.18752 48.8876 1.39189 48.6442 1.63799 48.4481L25.386 29.0531C25.6277 28.8514 25.9072 28.6999 26.2082 28.6076C26.5092 28.5153 26.8255 28.484 27.1388 28.5156C27.452 28.5472 27.7558 28.641 28.0323 28.7915C28.3088 28.942 28.5524 29.1462 28.749 29.3921L38.721 41.5791C38.923 41.8204 39.0748 42.0996 39.1673 42.4004C39.2598 42.7012 39.2911 43.0174 39.2595 43.3305C39.228 43.6436 39.134 43.9473 38.9833 44.2235C38.8326 44.4998 38.6282 44.7431 38.382 44.9391L14.635 64.3261C14.21 64.6781 13.675 64.8701 13.122 64.8691V64.8701ZM26.898 29.3051C26.5292 29.306 26.1715 29.4307 25.882 29.6591L2.13499 49.0541C1.81099 49.3241 1.60999 49.7131 1.57499 50.1321C1.53499 50.5571 1.66299 50.9801 1.92999 51.3121L11.901 63.4921C12.168 63.8241 12.557 64.0341 12.981 64.0751C13.403 64.1151 13.824 63.9871 14.154 63.7211L37.886 44.3251C38.0518 44.1945 38.1896 44.0319 38.2912 43.847C38.3928 43.6621 38.4562 43.4586 38.4776 43.2487C38.499 43.0387 38.4779 42.8266 38.4156 42.625C38.3533 42.4234 38.2511 42.2364 38.115 42.0751L28.143 29.9111C27.9953 29.722 27.8064 29.5691 27.5906 29.464C27.3748 29.359 27.138 29.3047 26.898 29.3051V29.3051Z" fill="#D1D3D4"/>
<path d="M1.18099 50.3681C1.07685 50.3678 0.977038 50.3263 0.903394 50.2527C0.829749 50.179 0.788259 50.0792 0.787995 49.9751C0.78249 49.9238 0.787353 49.8719 0.802295 49.8225C0.817237 49.7731 0.841953 49.7272 0.874975 49.6876C0.907997 49.648 0.948651 49.6153 0.994522 49.5917C1.04039 49.5681 1.09054 49.5539 1.14199 49.5501L20.936 47.8351L26.56 28.8001C26.5736 28.75 26.5972 28.7031 26.6294 28.6623C26.6616 28.6215 26.7016 28.5877 26.7472 28.5628C26.7928 28.5378 26.8429 28.5223 26.8946 28.5172C26.9463 28.5121 26.9984 28.5175 27.048 28.5331C27.1469 28.5638 27.2297 28.6322 27.2783 28.7236C27.327 28.815 27.3377 28.9219 27.308 29.0211L21.621 48.3141C21.6002 48.3903 21.5566 48.4582 21.496 48.5088C21.4353 48.5594 21.3607 48.5902 21.282 48.5971L1.22099 50.3671H1.18099V50.3681Z" fill="#D1D3D4"/>
<path d="M22.054 45.773C22.0007 45.7757 21.9473 45.7675 21.8972 45.7489C21.8472 45.7304 21.8014 45.7018 21.7627 45.665C21.724 45.6282 21.6931 45.5839 21.6721 45.5349C21.651 45.4858 21.6402 45.4329 21.6402 45.3795C21.6402 45.3261 21.651 45.2732 21.6721 45.2241C21.6931 45.1751 21.724 45.1308 21.7627 45.094C21.8014 45.0572 21.8472 45.0286 21.8972 45.0101C21.9473 44.9915 22.0007 44.9833 22.054 44.986L38.8 43.074C38.9029 43.0651 39.0053 43.0962 39.086 43.1608C39.1666 43.2254 39.2192 43.3186 39.233 43.421C39.2396 43.4727 39.2358 43.5251 39.2219 43.5753C39.208 43.6255 39.1842 43.6724 39.152 43.7134C39.1199 43.7543 39.0798 43.7885 39.0343 43.8138C38.9888 43.8391 38.9388 43.8552 38.887 43.861L22.125 45.773H22.055H22.054ZM13.099 64.87C13.06 64.8774 13.02 64.8774 12.981 64.87C12.9313 64.8549 12.8852 64.8298 12.8454 64.7964C12.8056 64.763 12.773 64.7219 12.7494 64.6756C12.7259 64.6293 12.712 64.5787 12.7085 64.5269C12.705 64.4751 12.7119 64.4231 12.729 64.374L17.935 48.362C17.9674 48.2575 18.0399 48.1701 18.1367 48.1191C18.2334 48.0681 18.3465 48.0576 18.451 48.09C18.5555 48.1224 18.6429 48.1949 18.6939 48.2917C18.7449 48.3884 18.7554 48.5015 18.723 48.606L13.516 64.618C13.4835 64.6997 13.4251 64.7684 13.3498 64.8138C13.2745 64.8591 13.1864 64.8785 13.099 64.869V64.87Z" fill="#D1D3D4"/>
<path d="M217.625 104.805L239.399 114.236C239.649 114.344 239.874 114.5 240.064 114.695C240.253 114.89 240.402 115.12 240.502 115.373C240.602 115.626 240.652 115.896 240.647 116.167C240.643 116.439 240.585 116.708 240.477 116.957L240.475 116.958L235.807 127.713C235.588 128.216 235.178 128.612 234.667 128.814C234.157 129.015 233.587 129.006 233.083 128.789L211.308 119.359C211.058 119.251 210.833 119.095 210.643 118.899C210.454 118.704 210.306 118.473 210.206 118.22C210.106 117.967 210.057 117.697 210.062 117.425C210.066 117.154 210.125 116.885 210.233 116.636L214.9 105.882C215.119 105.378 215.529 104.982 216.04 104.78C216.551 104.578 217.121 104.587 217.625 104.805Z" fill="white"/>
<path d="M234.162 129.491C233.891 129.489 233.623 129.433 233.374 129.326L210.753 119.522C210.263 119.316 209.877 118.922 209.682 118.428C209.481 117.937 209.481 117.386 209.682 116.894L214.715 105.288C214.928 104.804 215.324 104.423 215.817 104.228C216.309 104.034 216.858 104.042 217.345 104.25L239.975 114.046C240.461 114.258 240.844 114.654 241.038 115.147C241.139 115.389 241.192 115.648 241.192 115.911C241.192 116.173 241.139 116.432 241.038 116.674L235.998 128.264C235.895 128.505 235.745 128.722 235.557 128.905C235.369 129.087 235.147 129.23 234.903 129.326C234.669 129.427 234.418 129.483 234.163 129.491H234.162ZM216.605 104.871C216.122 104.873 215.686 105.161 215.495 105.603L210.422 117.248C210.164 117.856 210.446 118.558 211.052 118.822L233.682 128.626C233.98 128.747 234.313 128.747 234.612 128.626C234.91 128.509 235.149 128.276 235.272 127.98L240.314 116.367C240.436 116.073 240.436 115.742 240.314 115.447C240.258 115.297 240.171 115.161 240.06 115.045C239.949 114.93 239.816 114.839 239.668 114.777L217.054 104.974C216.913 104.909 216.76 104.874 216.605 104.871Z" fill="#D1D3D4"/>
<path d="M224.742 118.617C224.676 118.619 224.611 118.603 224.552 118.571C224.494 118.54 224.446 118.493 224.411 118.437L215.747 104.761C215.72 104.717 215.701 104.668 215.693 104.617C215.684 104.566 215.686 104.514 215.698 104.463C215.709 104.413 215.731 104.365 215.761 104.323C215.791 104.281 215.829 104.245 215.873 104.218C215.917 104.19 215.966 104.172 216.018 104.163C216.069 104.155 216.121 104.156 216.171 104.168C216.222 104.18 216.27 104.202 216.312 104.232C216.354 104.262 216.39 104.3 216.417 104.344L224.907 117.791L240.542 114.793C240.593 114.782 240.645 114.78 240.696 114.79C240.748 114.799 240.797 114.819 240.84 114.847C240.883 114.876 240.921 114.913 240.949 114.957C240.978 115 240.998 115.049 241.007 115.1C241.026 115.203 241.003 115.31 240.944 115.396C240.885 115.483 240.795 115.543 240.692 115.564L224.797 118.617H224.742V118.617Z" fill="#D1D3D4"/>
<path d="M234.619 129.42C234.554 129.42 234.49 129.404 234.433 129.374C234.375 129.344 234.326 129.3 234.289 129.247L226.742 118.035C226.699 117.97 226.676 117.894 226.676 117.816C226.676 117.738 226.699 117.662 226.743 117.598C226.786 117.533 226.848 117.483 226.92 117.453C226.992 117.424 227.072 117.416 227.148 117.432C227.25 117.452 227.34 117.514 227.396 117.602L234.942 128.846C235.062 129.029 235.012 129.274 234.832 129.396C234.764 129.422 234.691 129.431 234.619 129.42V129.42ZM210.107 118.822C210.013 118.823 209.921 118.791 209.849 118.73C209.776 118.67 209.728 118.585 209.713 118.492C209.705 118.441 209.707 118.388 209.719 118.338C209.732 118.287 209.754 118.24 209.785 118.198C209.815 118.156 209.854 118.121 209.899 118.094C209.943 118.067 209.993 118.05 210.044 118.042L223.434 115.855C223.534 115.848 223.633 115.878 223.711 115.94C223.79 116.003 223.842 116.092 223.858 116.191C223.874 116.29 223.852 116.391 223.797 116.474C223.742 116.558 223.657 116.618 223.56 116.642L210.17 118.83L210.107 118.822V118.822Z" fill="#D1D3D4"/>
<path d="M65.276 12.7259L81.746 18.1799C81.9346 18.2421 82.109 18.3409 82.2593 18.4706C82.4097 18.6003 82.533 18.7584 82.6221 18.9358C82.7113 19.1132 82.7646 19.3065 82.779 19.5045C82.7934 19.7026 82.7686 19.9015 82.706 20.0899L80.006 28.2289C79.8793 28.6094 79.6068 28.9242 79.2484 29.1041C78.89 29.2841 78.4749 29.3146 78.094 29.1889L61.624 23.7349C61.4353 23.6727 61.2607 23.5739 61.1103 23.4441C60.9599 23.3144 60.8366 23.1562 60.7474 22.9787C60.6582 22.8011 60.6049 22.6078 60.5906 22.4096C60.5763 22.2115 60.6012 22.0124 60.664 21.8239L63.364 13.6859C63.4907 13.3054 63.7632 12.9907 64.1216 12.8107C64.48 12.6308 64.8951 12.6003 65.276 12.7259V12.7259Z" fill="white"/>
<path d="M78.766 29.738C78.6 29.738 78.435 29.711 78.277 29.659L61.161 23.994C60.7676 23.8609 60.4427 23.578 60.2569 23.2066C60.0712 22.8352 60.0396 22.4055 60.169 22.011L63.083 13.231C63.2147 12.8377 63.496 12.5121 63.8661 12.3249C64.2362 12.1377 64.6652 12.104 65.06 12.231L82.176 17.896C82.5699 18.0283 82.8954 18.3112 83.0814 18.6827C83.2675 19.0542 83.299 19.4843 83.169 19.879L80.262 28.659C80.1577 28.9732 79.957 29.2467 79.6885 29.4404C79.4199 29.6341 79.0971 29.7382 78.766 29.738V29.738ZM78.521 28.912C78.7129 28.9908 78.9281 28.9908 79.12 28.912C79.2125 28.8654 79.2949 28.8011 79.3625 28.7227C79.4301 28.6443 79.4816 28.5533 79.514 28.455L82.436 19.682C82.5148 19.4904 82.5148 19.2755 82.436 19.084C82.3437 18.8991 82.1825 18.7579 81.987 18.691L64.871 13.026C64.6733 12.9622 64.4583 12.9791 64.273 13.073C64.091 13.1664 63.9525 13.3271 63.887 13.521L60.972 22.302C60.8972 22.4943 60.8972 22.7076 60.972 22.9C61.068 23.084 61.232 23.222 61.429 23.286L78.521 28.912V28.912Z" fill="#D1D3D4"/>
<path d="M71.322 22.4361C71.261 22.4355 71.201 22.4211 71.1464 22.3939C71.0918 22.3667 71.0442 22.3274 71.007 22.2791L63.8 12.8841C63.7399 12.8013 63.7144 12.6984 63.7289 12.5972C63.7434 12.4959 63.7969 12.4044 63.8778 12.3419C63.9588 12.2794 64.0609 12.2509 64.1625 12.2626C64.2641 12.2742 64.3572 12.3249 64.422 12.4041L71.44 21.5861L82.562 18.4391C82.6121 18.4248 82.6645 18.4206 82.7163 18.4267C82.768 18.4328 82.818 18.4492 82.8634 18.4747C82.9088 18.5003 82.9486 18.5346 82.9807 18.5757C83.0127 18.6168 83.0363 18.6638 83.05 18.7141C83.0767 18.8142 83.0628 18.9207 83.0113 19.0106C82.9598 19.1005 82.8749 19.1664 82.775 19.1941L71.4 22.4521L71.321 22.4361H71.322Z" fill="#D1D3D4"/>
<path d="M79.215 29.6601C79.1554 29.6611 79.0965 29.6481 79.043 29.622C78.9895 29.5959 78.9429 29.5576 78.907 29.5101L72.685 21.8141C72.6193 21.7327 72.5887 21.6285 72.5999 21.5245C72.611 21.4205 72.6631 21.3252 72.7445 21.2596C72.8259 21.1939 72.9301 21.1633 73.034 21.1745C73.138 21.1857 73.2333 21.2377 73.299 21.3191L79.522 29.0221C79.5678 29.0799 79.5964 29.1495 79.6045 29.2228C79.6126 29.2961 79.6 29.3703 79.5679 29.4367C79.5359 29.5032 79.4858 29.5593 79.4234 29.5986C79.361 29.6379 79.2887 29.6589 79.215 29.6591V29.6601ZM60.65 23.5221C60.5488 23.5285 60.449 23.4959 60.3711 23.4311C60.2931 23.3663 60.2429 23.2741 60.2308 23.1735C60.2186 23.0728 60.2454 22.9713 60.3057 22.8898C60.366 22.8083 60.4552 22.7529 60.555 22.7351L70.149 20.2801C70.1991 20.2672 70.2512 20.2642 70.3025 20.2714C70.3537 20.2787 70.403 20.2959 70.4476 20.3222C70.4922 20.3485 70.5311 20.3833 70.5622 20.4246C70.5934 20.4659 70.616 20.513 70.629 20.5631C70.6421 20.6127 70.6452 20.6645 70.638 20.7154C70.6308 20.7662 70.6135 20.8152 70.5872 20.8592C70.5608 20.9033 70.5259 20.9417 70.4844 20.972C70.443 21.0024 70.3959 21.0242 70.346 21.0361L60.752 23.4981L60.649 23.5221H60.65Z" fill="#D1D3D4"/>
</svg>
